<svg width="16" height="16" viewBox="0 0 16 16" fill="none" xmlns="http://www.w3.org/2000/svg">
<path fill-rule="evenodd" clip-rule="evenodd" d="M7.41835 2.69627C7.11255 2.64309 6.83268 2.87848 6.83268 3.18888V4.81581L7.94619 4.51888C8.89846 4.26494 9.83268 4.98268 9.83268 5.96823V14.1666H13.4993V4.17438C13.4993 3.93129 13.3245 3.72343 13.085 3.68178L7.41835 2.69627ZM14.4993 14.1666V4.17438C14.4993 3.44512 13.9748 2.82152 13.2564 2.69657L7.58969 1.71106C6.67227 1.55151 5.83268 2.25769 5.83268 3.18888V5.08626L2.59903 5.98174C1.94923 6.16168 1.49935 6.75308 1.49935 7.42733V14.1666H0.666016C0.389873 14.1666 0.166016 14.3905 0.166016 14.6666C0.166016 14.9428 0.389873 15.1666 0.666016 15.1666H15.3327C15.6088 15.1666 15.8327 14.9428 15.8327 14.6666C15.8327 14.3905 15.6088 14.1666 15.3327 14.1666H14.4993ZM6.16602 14.1666V11.3333C6.16602 11.0571 5.94216 10.8333 5.66602 10.8333C5.38987 10.8333 5.16602 11.0571 5.16602 11.3333V14.1666H2.49935V7.42733C2.49935 7.20258 2.64931 7.00545 2.86591 6.94547L6.46382 5.94912L8.20385 5.48511C8.52127 5.40047 8.83268 5.63972 8.83268 5.96823V14.1666H6.16602Z" fill="#7F7F7F"/>
</svg>
