<svg width="25" height="24" viewBox="0 0 25 24" fill="none" xmlns="http://www.w3.org/2000/svg">
<path d="M13.2449 12.975H5.72246C4.77745 12.975 3.89996 12.69 3.15747 12.21V16.7775C3.15747 17.8575 4.03496 18.7425 5.12247 18.7425H11.55C11.4674 18.3375 11.4224 17.9175 11.4224 17.49C11.4224 15.735 12.1125 14.1525 13.2449 12.975Z" fill="url(#paint0_linear_973_39615)"/>
<path d="M10.11 9.66H12.24V11.475H10.11V9.66Z" fill="url(#paint1_linear_973_39615)"/>
<path d="M5.72253 11.475H8.61002V9.5175C8.61002 8.7675 9.21751 8.16 9.96005 8.16H12.3825C13.1325 8.16 13.74 8.7675 13.74 9.5175V11.475H16.62C18.3675 11.475 19.7925 10.05 19.7925 8.30251V5.27998C19.7925 4.85999 19.455 4.52998 19.0425 4.52998H14.9495V2.25C14.9495 1.83545 14.6137 1.5 14.1995 1.5H8.14566C7.73148 1.5 7.39566 1.83545 7.39566 2.25V4.52998H3.30005C2.88751 4.52998 2.55005 4.85999 2.55005 5.27998V8.30251C2.55005 10.05 3.97502 11.475 5.72253 11.475ZM8.89566 3H13.4495V4.52998H8.89566V3Z" fill="url(#paint2_linear_973_39615)"/>
<path d="M17.94 12.48C15.1725 12.48 12.9225 14.7225 12.9225 17.49C12.9225 20.25 15.1725 22.5 17.94 22.5C20.7 22.5 22.95 20.25 22.95 17.49C22.95 14.7225 20.7 12.48 17.94 12.48ZM19.3425 18.24H17.94C17.52 18.24 17.19 17.9025 17.19 17.49V16.02C17.19 15.6 17.52 15.27 17.94 15.27C18.3525 15.27 18.69 15.6 18.69 16.02V16.74H19.3425C19.7625 16.74 20.0925 17.0775 20.0925 17.49C20.0925 17.9025 19.7625 18.24 19.3425 18.24Z" fill="url(#paint3_linear_973_39615)"/>
<defs>
<linearGradient id="paint0_linear_973_39615" x1="8.2012" y1="12.21" x2="8.2012" y2="18.7425" gradientUnits="userSpaceOnUse">
<stop stop-color="#F7A2A8"/>
<stop offset="1" stop-color="#F9414E"/>
</linearGradient>
<linearGradient id="paint1_linear_973_39615" x1="11.175" y1="9.66" x2="11.175" y2="11.475" gradientUnits="userSpaceOnUse">
<stop stop-color="#F7A2A8"/>
<stop offset="1" stop-color="#F9414E"/>
</linearGradient>
<linearGradient id="paint2_linear_973_39615" x1="11.1713" y1="1.5" x2="11.1713" y2="11.475" gradientUnits="userSpaceOnUse">
<stop stop-color="#F7A2A8"/>
<stop offset="1" stop-color="#F9414E"/>
</linearGradient>
<linearGradient id="paint3_linear_973_39615" x1="17.9362" y1="12.48" x2="17.9362" y2="22.5" gradientUnits="userSpaceOnUse">
<stop stop-color="#F7A2A8"/>
<stop offset="1" stop-color="#F9414E"/>
</linearGradient>
</defs>
</svg>
