<svg width="24" height="24" viewBox="0 0 24 24" fill="none" xmlns="http://www.w3.org/2000/svg">
<path fill-rule="evenodd" clip-rule="evenodd" d="M8.30844 2C8.73328 2 9.07767 2.3444 9.07767 2.76923V5.53846C9.07767 5.9633 8.73328 6.30769 8.30844 6.30769C7.88361 6.30769 7.53921 5.9633 7.53921 5.53846V2.76923C7.53921 2.3444 7.88361 2 8.30844 2Z" fill="#7F7F7F"/>
<path fill-rule="evenodd" clip-rule="evenodd" d="M15.6931 2C16.1179 2 16.4623 2.3444 16.4623 2.76923V5.53846C16.4623 5.9633 16.1179 6.30769 15.6931 6.30769C15.2682 6.30769 14.9238 5.9633 14.9238 5.53846V2.76923C14.9238 2.3444 15.2682 2 15.6931 2Z" fill="#7F7F7F"/>
<path fill-rule="evenodd" clip-rule="evenodd" d="M3.38537 9.3137C3.38537 8.88887 3.72976 8.54447 4.1546 8.54447H19.8469C20.2717 8.54447 20.6161 8.88887 20.6161 9.3137C20.6161 9.73854 20.2717 10.0829 19.8469 10.0829H4.1546C3.72976 10.0829 3.38537 9.73854 3.38537 9.3137Z" fill="#7F7F7F"/>
<path fill-rule="evenodd" clip-rule="evenodd" d="M5.3529 5.9465C4.77908 6.56447 4.46229 7.50253 4.46229 8.76923V16.6154C4.46229 17.8821 4.77908 18.8202 5.3529 19.4381C5.91714 20.0458 6.83967 20.4615 8.30844 20.4615H15.6931C17.1618 20.4615 18.0844 20.0458 18.6486 19.4381C19.2224 18.8202 19.5392 17.8821 19.5392 16.6154V8.76923C19.5392 7.50253 19.2224 6.56447 18.6486 5.9465C18.0844 5.33886 17.1618 4.92308 15.6931 4.92308H8.30844C6.83967 4.92308 5.91714 5.33886 5.3529 5.9465ZM4.22553 4.89965C5.16128 3.89191 6.54644 3.38462 8.30844 3.38462H15.6931C17.4551 3.38462 18.8402 3.89191 19.776 4.89965C20.7022 5.89707 21.0777 7.2667 21.0777 8.76923V16.6154C21.0777 18.1179 20.7022 19.4875 19.776 20.485C18.8402 21.4927 17.4551 22 15.6931 22H8.30844C6.54644 22 5.16128 21.4927 4.22553 20.485C3.29935 19.4875 2.92383 18.1179 2.92383 16.6154V8.76923C2.92383 7.2667 3.29935 5.89707 4.22553 4.89965Z" fill="#7F7F7F"/>
<path fill-rule="evenodd" clip-rule="evenodd" d="M14.4112 13.5694C14.4112 13.0171 14.859 12.5694 15.4112 12.5694H15.4195C15.9718 12.5694 16.4195 13.0171 16.4195 13.5694C16.4195 14.1217 15.9718 14.5694 15.4195 14.5694H15.4112C14.859 14.5694 14.4112 14.1217 14.4112 13.5694Z" fill="#7F7F7F"/>
<path fill-rule="evenodd" clip-rule="evenodd" d="M14.4112 16.3386C14.4112 15.7864 14.859 15.3386 15.4112 15.3386H15.4195C15.9718 15.3386 16.4195 15.7864 16.4195 16.3386C16.4195 16.8909 15.9718 17.3386 15.4195 17.3386H15.4112C14.859 17.3386 14.4112 16.8909 14.4112 16.3386Z" fill="#7F7F7F"/>
<path fill-rule="evenodd" clip-rule="evenodd" d="M10.9966 13.5694C10.9966 13.0171 11.4443 12.5694 11.9966 12.5694H12.0049C12.5572 12.5694 13.0049 13.0171 13.0049 13.5694C13.0049 14.1217 12.5572 14.5694 12.0049 14.5694H11.9966C11.4443 14.5694 10.9966 14.1217 10.9966 13.5694Z" fill="#7F7F7F"/>
<path fill-rule="evenodd" clip-rule="evenodd" d="M10.9966 16.3386C10.9966 15.7864 11.4443 15.3386 11.9966 15.3386H12.0049C12.5572 15.3386 13.0049 15.7864 13.0049 16.3386C13.0049 16.8909 12.5572 17.3386 12.0049 17.3386H11.9966C11.4443 17.3386 10.9966 16.8909 10.9966 16.3386Z" fill="#7F7F7F"/>
<path fill-rule="evenodd" clip-rule="evenodd" d="M7.58012 13.5694C7.58012 13.0171 8.02783 12.5694 8.58012 12.5694H8.58841C9.14069 12.5694 9.58841 13.0171 9.58841 13.5694C9.58841 14.1217 9.14069 14.5694 8.58841 14.5694H8.58012C8.02783 14.5694 7.58012 14.1217 7.58012 13.5694Z" fill="#7F7F7F"/>
<path fill-rule="evenodd" clip-rule="evenodd" d="M7.58012 16.3386C7.58012 15.7864 8.02783 15.3386 8.58012 15.3386H8.58841C9.14069 15.3386 9.58841 15.7864 9.58841 16.3386C9.58841 16.8909 9.14069 17.3386 8.58841 17.3386H8.58012C8.02783 17.3386 7.58012 16.8909 7.58012 16.3386Z" fill="#7F7F7F"/>
</svg>
