<svg width="48" height="48" viewBox="0 0 48 48" fill="none" xmlns="http://www.w3.org/2000/svg">
<path d="M0 24C0 10.7452 10.7452 0 24 0C37.2548 0 48 10.7452 48 24C48 37.2548 37.2548 48 24 48C10.7452 48 0 37.2548 0 24Z" fill="#E8FFEC"/>
<path d="M30.5567 22.5415C30.055 22.5415 29.6584 22.1332 29.6584 21.6432C29.6584 21.2115 29.2267 20.3132 28.5034 19.5315C27.7917 18.7732 27.01 18.3299 26.3567 18.3299C25.855 18.3299 25.4584 17.9215 25.4584 17.4315C25.4584 16.9415 25.8667 16.5332 26.3567 16.5332C27.5234 16.5332 28.7484 17.1632 29.8217 18.2949C30.825 19.3565 31.4667 20.6749 31.4667 21.6315C31.4667 22.1332 31.0584 22.5415 30.5567 22.5415Z" fill="#39B54A"/>
<path d="M34.7683 22.5423C34.2666 22.5423 33.87 22.134 33.87 21.644C33.87 17.5023 30.4983 14.1423 26.3683 14.1423C25.8666 14.1423 25.47 13.734 25.47 13.244C25.47 12.754 25.8666 12.334 26.3566 12.334C31.49 12.334 35.6666 16.5107 35.6666 21.644C35.6666 22.134 35.2583 22.5423 34.7683 22.5423Z" fill="#39B54A"/>
<path d="M22.8917 27.4423L20.7334 29.6006C20.2784 30.0556 19.555 30.0557 19.0884 29.6123C18.96 29.484 18.8317 29.3673 18.7034 29.239C17.5017 28.0257 16.4167 26.754 15.4484 25.424C14.4917 24.094 13.7217 22.764 13.1617 21.4457C12.6134 20.1157 12.3334 18.844 12.3334 17.6307C12.3334 16.8373 12.4734 16.079 12.7534 15.379C13.0334 14.6673 13.4767 14.014 14.095 13.4307C14.8417 12.6957 15.6584 12.334 16.5217 12.334C16.8484 12.334 17.175 12.404 17.4667 12.544C17.77 12.684 18.0384 12.894 18.2484 13.1973L20.955 17.0123C21.165 17.304 21.3167 17.5723 21.4217 17.829C21.5267 18.074 21.585 18.319 21.585 18.5407C21.585 18.8207 21.5034 19.1007 21.34 19.369C21.1884 19.6373 20.9667 19.9173 20.6867 20.1973L19.8 21.119C19.6717 21.2473 19.6134 21.399 19.6134 21.5857C19.6134 21.679 19.625 21.7607 19.6484 21.854C19.6834 21.9473 19.7184 22.0173 19.7417 22.0873C19.9517 22.4723 20.3134 22.974 20.8267 23.5807C21.3517 24.1873 21.9117 24.8057 22.5184 25.424C22.635 25.5407 22.7634 25.6573 22.88 25.774C23.3467 26.229 23.3584 26.9757 22.8917 27.4423Z" fill="#39B54A"/>
<path d="M35.6316 31.3859C35.6316 31.7125 35.5733 32.0509 35.4566 32.3775C35.4216 32.4709 35.3866 32.5642 35.34 32.6575C35.1416 33.0775 34.885 33.4742 34.5466 33.8475C33.975 34.4775 33.345 34.9325 32.6333 35.2242C32.6216 35.2242 32.61 35.2359 32.5983 35.2359C31.91 35.5159 31.1633 35.6675 30.3583 35.6675C29.1683 35.6675 27.8966 35.3875 26.555 34.8159C25.2133 34.2442 23.8716 33.4742 22.5416 32.5059C22.0866 32.1675 21.6316 31.8292 21.2 31.4675L25.015 27.6525C25.3416 27.8975 25.6333 28.0842 25.8783 28.2125C25.9366 28.2359 26.0066 28.2709 26.0883 28.3059C26.1816 28.3409 26.275 28.3525 26.38 28.3525C26.5783 28.3525 26.73 28.2825 26.8583 28.1542L27.745 27.2792C28.0366 26.9875 28.3166 26.7659 28.585 26.6259C28.8533 26.4625 29.1216 26.3809 29.4133 26.3809C29.635 26.3809 29.8683 26.4275 30.125 26.5325C30.3816 26.6375 30.65 26.7892 30.9416 26.9875L34.8033 29.7292C35.1066 29.9392 35.3166 30.1842 35.445 30.4759C35.5616 30.7675 35.6316 31.0592 35.6316 31.3859Z" fill="#39B54A"/>
</svg>
