<svg width="25" height="24" viewBox="0 0 25 24" fill="none" xmlns="http://www.w3.org/2000/svg">
<path d="M18.12 10.7496C17.69 10.7496 17.35 10.3996 17.35 9.97961C17.35 9.60961 16.98 8.83961 16.36 8.16961C15.75 7.51961 15.08 7.13961 14.52 7.13961C14.09 7.13961 13.75 6.78961 13.75 6.36961C13.75 5.94961 14.1 5.59961 14.52 5.59961C15.52 5.59961 16.57 6.13961 17.49 7.10961C18.35 8.01961 18.9 9.14961 18.9 9.96961C18.9 10.3996 18.55 10.7496 18.12 10.7496Z" fill="white"/>
<path d="M21.73 10.75C21.3 10.75 20.96 10.4 20.96 9.98C20.96 6.43 18.07 3.55 14.53 3.55C14.1 3.55 13.76 3.2 13.76 2.78C13.76 2.36 14.1 2 14.52 2C18.92 2 22.5 5.58 22.5 9.98C22.5 10.4 22.15 10.75 21.73 10.75Z" fill="white"/>
<path d="M11.55 14.95L9.7 16.8C9.31 17.19 8.69 17.19 8.29 16.81C8.18 16.7 8.07 16.6 7.96 16.49C6.93 15.45 6 14.36 5.17 13.22C4.35 12.08 3.69 10.94 3.21 9.81C2.74 8.67 2.5 7.58 2.5 6.54C2.5 5.86 2.62 5.21 2.86 4.61C3.1 4 3.48 3.44 4.01 2.94C4.65 2.31 5.35 2 6.09 2C6.37 2 6.65 2.06 6.9 2.18C7.16 2.3 7.39 2.48 7.57 2.74L9.89 6.01C10.07 6.26 10.2 6.49 10.29 6.71C10.38 6.92 10.43 7.13 10.43 7.32C10.43 7.56 10.36 7.8 10.22 8.03C10.09 8.26 9.9 8.5 9.66 8.74L8.9 9.53C8.79 9.64 8.74 9.77 8.74 9.93C8.74 10.01 8.75 10.08 8.77 10.16C8.8 10.24 8.83 10.3 8.85 10.36C9.03 10.69 9.34 11.12 9.78 11.64C10.23 12.16 10.71 12.69 11.23 13.22C11.33 13.32 11.44 13.42 11.54 13.52C11.94 13.91 11.95 14.55 11.55 14.95Z" fill="white"/>
<path d="M22.47 18.3291C22.47 18.6091 22.42 18.8991 22.32 19.1791C22.29 19.2591 22.26 19.3391 22.22 19.4191C22.05 19.7791 21.83 20.1191 21.54 20.4391C21.05 20.9791 20.51 21.3691 19.9 21.6191C19.89 21.6191 19.88 21.6291 19.87 21.6291C19.28 21.8691 18.64 21.9991 17.95 21.9991C16.93 21.9991 15.84 21.7591 14.69 21.2691C13.54 20.7791 12.39 20.1191 11.25 19.2891C10.86 18.9991 10.47 18.7091 10.1 18.3991L13.37 15.1291C13.65 15.3391 13.9 15.4991 14.11 15.6091C14.16 15.6291 14.22 15.6591 14.29 15.6891C14.37 15.7191 14.45 15.7291 14.54 15.7291C14.71 15.7291 14.84 15.6691 14.95 15.5591L15.71 14.8091C15.96 14.5591 16.2 14.3691 16.43 14.2491C16.66 14.1091 16.89 14.0391 17.14 14.0391C17.33 14.0391 17.53 14.0791 17.75 14.1691C17.97 14.2591 18.2 14.3891 18.45 14.5591L21.76 16.9091C22.02 17.0891 22.2 17.2991 22.31 17.5491C22.41 17.7991 22.47 18.0491 22.47 18.3291Z" fill="white"/>
</svg>
