<svg width="20" height="20" viewBox="0 0 20 20" fill="none" xmlns="http://www.w3.org/2000/svg">
<path fill-rule="evenodd" clip-rule="evenodd" d="M17.7782 10.0002C17.7782 14.2957 14.296 17.778 10.0004 17.778C5.70489 17.778 2.22266 14.2957 2.22266 10.0002C2.22266 5.70464 5.70489 2.22241 10.0004 2.22241C14.296 2.22241 17.7782 5.70464 17.7782 10.0002ZM13.1351 7.64327C13.3629 7.87107 13.3629 8.24042 13.1351 8.46822L9.24625 12.3571C9.01844 12.5849 8.64909 12.5849 8.42129 12.3571L6.86573 10.8016C6.63793 10.5738 6.63793 10.2044 6.86573 9.9766C7.09354 9.74879 7.46289 9.74879 7.69069 9.9766L8.83377 11.1197L10.572 9.38147L12.3102 7.64327C12.538 7.41546 12.9073 7.41546 13.1351 7.64327Z" fill="#39B54A"/>
</svg>
