<svg width="24" height="24" viewBox="0 0 24 24" fill="none" xmlns="http://www.w3.org/2000/svg">
<path fill-rule="evenodd" clip-rule="evenodd" d="M12 4.38462C7.7965 4.38462 4.38462 7.7965 4.38462 12C4.38462 16.2035 7.7965 19.6154 12 19.6154C16.2035 19.6154 19.6154 16.2035 19.6154 12C19.6154 7.7965 16.2035 4.38462 12 4.38462ZM3 12C3 7.0318 7.0318 3 12 3C16.9682 3 21 7.0318 21 12C21 16.9682 16.9682 21 12 21C7.0318 21 3 16.9682 3 12Z" fill="white"/>
<path fill-rule="evenodd" clip-rule="evenodd" d="M11.6925 7.57734C12.0749 7.57734 12.3848 7.8873 12.3848 8.26965V11.6758C12.3848 11.7885 12.4288 11.9616 12.5328 12.1439C12.6367 12.3262 12.7633 12.4521 12.8596 12.5091L12.8615 12.5102L15.4368 14.0472C15.7652 14.2431 15.8725 14.6681 15.6765 14.9964C15.4806 15.3248 15.0556 15.4321 14.7273 15.2361L12.1537 13.7003L12.1528 13.6997C11.8009 13.4909 11.5207 13.1643 11.33 12.8298C11.139 12.4949 11.0002 12.0865 11.0002 11.6758V8.26965C11.0002 7.8873 11.3102 7.57734 11.6925 7.57734Z" fill="white"/>
</svg>
