<svg width="20" height="20" viewBox="0 0 20 20" fill="none" xmlns="http://www.w3.org/2000/svg">
<circle cx="10" cy="10" r="8" fill="white"/>
<path d="M10.0003 1.66602C5.40866 1.66602 1.66699 5.40768 1.66699 9.99935C1.66699 14.591 5.40866 18.3327 10.0003 18.3327C14.592 18.3327 18.3337 14.591 18.3337 9.99935C18.3337 5.40768 14.592 1.66602 10.0003 1.66602ZM12.8003 11.916C13.042 12.1577 13.042 12.5577 12.8003 12.7993C12.6753 12.9243 12.517 12.9827 12.3587 12.9827C12.2003 12.9827 12.042 12.9243 11.917 12.7993L10.0003 10.8827L8.08366 12.7993C7.95866 12.9243 7.80033 12.9827 7.64199 12.9827C7.48366 12.9827 7.32533 12.9243 7.20033 12.7993C6.95866 12.5577 6.95866 12.1577 7.20033 11.916L9.11699 9.99935L7.20033 8.08268C6.95866 7.84102 6.95866 7.44102 7.20033 7.19935C7.44199 6.95768 7.84199 6.95768 8.08366 7.19935L10.0003 9.11602L11.917 7.19935C12.1587 6.95768 12.5587 6.95768 12.8003 7.19935C13.042 7.44102 13.042 7.84102 12.8003 8.08268L10.8837 9.99935L12.8003 11.916Z" fill="#E81D2C"/>
</svg>
