<svg width="28" height="28" viewBox="0 0 28 28" fill="none" xmlns="http://www.w3.org/2000/svg">
<path fill-rule="evenodd" clip-rule="evenodd" d="M13.125 3.5C13.125 3.01675 13.5168 2.625 14 2.625C20.2822 2.625 25.375 7.71776 25.375 14C25.375 14.4832 24.9832 14.875 24.5 14.875C24.0168 14.875 23.625 14.4832 23.625 14C23.625 8.68426 19.3157 4.375 14 4.375C13.5168 4.375 13.125 3.98325 13.125 3.5ZM3.5 13.125C3.98325 13.125 4.375 13.5168 4.375 14C4.375 19.3157 8.68426 23.625 14 23.625C14.4832 23.625 14.875 24.0168 14.875 24.5C14.875 24.9832 14.4832 25.375 14 25.375C7.71776 25.375 2.625 20.2822 2.625 14C2.625 13.5168 3.01675 13.125 3.5 13.125ZM7.01749 3.07998C6.53907 3.07998 6.15124 3.46782 6.15124 3.94623V4.62505L7.15745 4.33124C7.97906 4.09134 8.80595 4.69015 8.80595 5.52505V10.395H8.26874V5.68492C8.26874 5.10465 7.70937 4.68846 7.15357 4.8552L4.07361 5.6637C3.7072 5.77362 3.45627 6.11087 3.45627 6.49342V10.395H2.97499C2.81551 10.395 2.68624 10.5243 2.68624 10.6837C2.68624 10.8432 2.81551 10.9725 2.97499 10.9725H11.445C11.6045 10.9725 11.7337 10.8432 11.7337 10.6837C11.7337 10.5243 11.6045 10.395 11.445 10.395H10.9637V4.52373C10.9637 3.97357 10.4825 3.75373 10.0975 3.65748L7.01749 3.07998ZM6.34374 8.75873V10.395H5.76624V8.75873C5.76624 8.59926 5.89551 8.46998 6.05499 8.46998C6.21446 8.46998 6.34374 8.59926 6.34374 8.75873ZM22.2056 18.6511C22.2056 19.5961 21.4395 20.3622 20.4944 20.3622C19.5494 20.3622 18.7833 19.5961 18.7833 18.6511C18.7833 17.7061 19.5494 16.94 20.4944 16.94C21.4395 16.94 22.2056 17.7061 22.2056 18.6511ZM23.4889 22.9289C23.4889 23.8739 22.1482 24.64 20.4944 24.64C18.8407 24.64 17.5 23.8739 17.5 22.9289C17.5 21.9839 18.8407 21.2178 20.4944 21.2178C22.1482 21.2178 23.4889 21.9839 23.4889 22.9289ZM22.1888 20.2834C22.5964 19.8603 22.847 19.2851 22.847 18.6512C22.847 18.3498 22.7903 18.0617 22.6871 17.7968C23.3708 17.8251 23.9164 18.3883 23.9164 19.079C23.9164 19.7878 23.3419 20.3624 22.6331 20.3624C22.4769 20.3624 22.3273 20.3345 22.1888 20.2834ZM23.9838 23.5925C24.0793 23.382 24.1305 23.1592 24.1305 22.9287C24.1305 22.2618 23.7017 21.6597 23.0126 21.2316C24.2503 21.3232 25.2 21.8567 25.2 22.501C25.2 22.962 24.7138 23.3662 23.9838 23.5925Z" fill="url(#paint0_linear_210_28161)"/>
<defs>
<linearGradient id="paint0_linear_210_28161" x1="14" y1="2.625" x2="14" y2="25.375" gradientUnits="userSpaceOnUse">
<stop stop-color="#F7A2A8"/>
<stop offset="1" stop-color="#F9414E"/>
</linearGradient>
</defs>
</svg>
