<svg width="28" height="28" viewBox="0 0 28 28" fill="none" xmlns="http://www.w3.org/2000/svg">
<path fill-rule="evenodd" clip-rule="evenodd" d="M10.5 4.66665C10.5 5.95531 9.45533 6.99998 8.16667 6.99998C6.878 6.99998 5.83333 5.95531 5.83333 4.66665C5.83333 3.37798 6.878 2.33331 8.16667 2.33331C9.45533 2.33331 10.5 3.37798 10.5 4.66665ZM8.16667 6.99998C6.23367 6.99998 4.66667 8.04465 4.66667 9.33331C4.66667 10.622 6.23367 11.6666 8.16667 11.6666C10.0997 11.6666 11.6667 10.622 11.6667 9.33331C11.6667 8.04465 10.0997 6.99998 8.16667 6.99998ZM21 21C22.2887 21 23.3333 19.9553 23.3333 18.6666C23.3333 17.378 22.2887 16.3333 21 16.3333C19.7113 16.3333 18.6667 17.378 18.6667 18.6666C18.6667 19.9545 19.71 20.9986 20.9975 21C19.0656 21.0009 17.5 22.0452 17.5 23.3333C17.5 24.622 19.067 25.6666 21 25.6666C22.933 25.6666 24.5 24.622 24.5 23.3333C24.5 22.0446 22.933 21 21 21ZM13.125 3.49998C13.125 3.01673 13.5167 2.62498 14 2.62498C20.2822 2.62498 25.375 7.71774 25.375 14C25.375 14.4832 24.9832 14.875 24.5 14.875C24.0168 14.875 23.625 14.4832 23.625 14C23.625 8.68424 19.3157 4.37498 14 4.37498C13.5167 4.37498 13.125 3.98323 13.125 3.49998ZM3.5 13.125C3.98325 13.125 4.375 13.5167 4.375 14C4.375 19.3157 8.68426 23.625 14 23.625C14.4832 23.625 14.875 24.0167 14.875 24.5C14.875 24.9832 14.4832 25.375 14 25.375C7.71776 25.375 2.625 20.2822 2.625 14C2.625 13.5167 3.01675 13.125 3.5 13.125Z" fill="url(#paint0_linear_973_40107)"/>
<defs>
<linearGradient id="paint0_linear_973_40107" x1="14" y1="2.33331" x2="14" y2="25.6666" gradientUnits="userSpaceOnUse">
<stop stop-color="#F7A2A8"/>
<stop offset="1" stop-color="#F9414E"/>
</linearGradient>
</defs>
</svg>
