<svg width="16" height="16" viewBox="0 0 16 16" fill="none" xmlns="http://www.w3.org/2000/svg">
<path d="M8.00059 1.33301C4.5312 1.33301 1.67833 3.97764 1.33673 7.37602C1.30707 7.67107 1.52111 7.93497 1.8156 7.96485C2.11014 7.99474 2.37247 7.77909 2.40213 7.48398C2.68905 4.62958 5.08617 2.40816 8.00059 2.40816C10.9146 2.40816 13.3121 4.63536 13.5991 7.48409C13.6288 7.77919 13.8911 7.99479 14.1857 7.96484C14.4802 7.9349 14.6942 7.67096 14.6644 7.37591C14.3228 3.98424 11.4704 1.33301 8.00059 1.33301Z" fill="#7F7F7F"/>
<path d="M2.62718 9.74059C2.53946 9.45726 2.23946 9.29854 1.95679 9.38688C1.67427 9.47517 1.51696 9.77655 1.60463 10.0597C2.32116 12.3742 4.24897 14.1574 6.64883 14.6491C6.9389 14.7085 7.2215 14.5204 7.2805 14.2297C7.33947 13.9391 7.15288 13.655 6.86291 13.5956C4.8508 13.1834 3.22931 11.6855 2.62718 9.74059Z" fill="#7F7F7F"/>
<path d="M14.0414 9.41882C13.7592 9.32875 13.4583 9.48562 13.3688 9.7684C12.7552 11.7084 11.1394 13.1894 9.13182 13.6019C8.84188 13.6614 8.65545 13.9456 8.71458 14.2362C8.77373 14.5268 9.05644 14.7148 9.34647 14.6552C11.7386 14.1638 13.6597 12.4008 14.3894 10.0938C14.4788 9.81119 14.3233 9.50885 14.0414 9.41882Z" fill="#7F7F7F"/>
</svg>
