<svg width="16" height="16" viewBox="0 0 16 16" fill="none" xmlns="http://www.w3.org/2000/svg">
<path d="M10.6663 8.60065V11.4007C10.6663 13.734 9.73301 14.6673 7.39967 14.6673H4.59967C2.26634 14.6673 1.33301 13.734 1.33301 11.4007V8.60065C1.33301 6.26732 2.26634 5.33398 4.59967 5.33398H7.39967C9.73301 5.33398 10.6663 6.26732 10.6663 8.60065Z" stroke="#7F7F7F" stroke-width="1.5" stroke-linecap="round" stroke-linejoin="round"/>
<path d="M14.6663 4.60065V7.40065C14.6663 9.73398 13.733 10.6673 11.3997 10.6673H10.6663V8.60065C10.6663 6.26732 9.73301 5.33398 7.39967 5.33398H5.33301V4.60065C5.33301 2.26732 6.26634 1.33398 8.59967 1.33398H11.3997C13.733 1.33398 14.6663 2.26732 14.6663 4.60065Z" stroke="#7F7F7F" stroke-width="1.5" stroke-linecap="round" stroke-linejoin="round"/>
</svg>
