<svg width="20" height="20" viewBox="0 0 20 20" fill="none" xmlns="http://www.w3.org/2000/svg">
<path d="M16.6113 8.59241H14.3636C12.5202 8.59241 11.0191 7.0913 11.0191 5.24797V3.00019C11.0191 2.57241 10.6691 2.22241 10.2413 2.22241H6.94355C4.54799 2.22241 2.61133 3.77797 2.61133 6.55464V13.4457C2.61133 16.2224 4.54799 17.778 6.94355 17.778H13.0569C15.4524 17.778 17.3891 16.2224 17.3891 13.4457V9.37019C17.3891 8.94241 17.0391 8.59241 16.6113 8.59241ZM9.63466 11.1902C9.518 11.3069 9.37022 11.3613 9.22244 11.3613C9.07466 11.3613 8.92688 11.3069 8.81022 11.1902L8.25022 10.6302V13.8891C8.25022 14.208 7.98577 14.4724 7.66688 14.4724C7.348 14.4724 7.08355 14.208 7.08355 13.8891V10.6302L6.52355 11.1902C6.298 11.4157 5.92466 11.4157 5.69911 11.1902C5.47355 10.9646 5.47355 10.5913 5.69911 10.3657L7.25466 8.81019C7.30911 8.76352 7.36355 8.72463 7.42577 8.69352C7.44133 8.68575 7.46466 8.67797 7.48022 8.67019C7.52688 8.65463 7.57355 8.64686 7.628 8.63908C7.65133 8.63908 7.66688 8.63908 7.69022 8.63908C7.75244 8.63908 7.81466 8.65463 7.87688 8.67797C7.88466 8.67797 7.88466 8.67797 7.89244 8.67797C7.95466 8.7013 8.01688 8.74797 8.06355 8.79463C8.07133 8.80241 8.07911 8.80241 8.07911 8.81019L9.63466 10.3657C9.86022 10.5913 9.86022 10.9646 9.63466 11.1902Z" fill="#2D84FF"/>
<path d="M14.2239 7.51902C14.9627 7.5268 15.9894 7.5268 16.8683 7.5268C17.3116 7.5268 17.545 7.00569 17.2339 6.69457C16.1138 5.5668 14.1072 3.5368 12.9561 2.38569C12.6372 2.0668 12.085 2.28457 12.085 2.72791V5.44235C12.085 6.57791 13.0494 7.51902 14.2239 7.51902Z" fill="#2D84FF"/>
</svg>
