<svg width="24" height="24" viewBox="0 0 24 24" fill="none" xmlns="http://www.w3.org/2000/svg">
<path fill-rule="evenodd" clip-rule="evenodd" d="M5.84682 3.53847C5.27045 3.53847 4.75136 4.0084 4.75136 4.72717V6.87157C4.75136 7.00437 4.80264 7.24279 4.9288 7.52422C5.05199 7.79901 5.21353 8.04069 5.36517 8.19233L5.37894 8.20645L8.92186 11.9358C8.93688 11.9517 8.95122 11.9681 8.96484 11.9851C9.20631 12.287 9.42829 12.6818 9.59118 13.089C9.75241 13.4921 9.87928 13.9659 9.87928 14.4236V19.365C9.87928 20.2074 10.8535 20.7467 11.5915 20.2983L12.8896 19.4639C12.8963 19.4596 12.903 19.4554 12.9098 19.4513C12.9799 19.4093 13.1052 19.2844 13.2175 19.0684C13.3274 18.8572 13.3755 18.6526 13.3755 18.5259V14.5168C13.3755 14.0256 13.4958 13.504 13.693 13.0393C13.8872 12.5816 14.1804 12.1217 14.5753 11.7893L18.5569 8.27066C18.7078 8.11476 18.8857 7.85446 19.0269 7.54388C19.1736 7.2211 19.2493 6.91289 19.2493 6.6851V4.63393C19.2493 4.03319 18.7546 3.53847 18.1538 3.53847H5.84682ZM3.21289 4.72717C3.21289 3.2083 4.37203 2 5.84682 2H18.1538C19.6042 2 20.7878 3.18351 20.7878 4.63393V6.6851C20.7878 7.20319 20.6304 7.73409 20.4275 8.1805C20.2236 8.62899 19.9424 9.06116 19.6301 9.37343C19.6189 9.38461 19.6074 9.39544 19.5956 9.40591L15.5865 12.9488C15.5809 12.9538 15.5752 12.9586 15.5695 12.9634C15.4098 13.0965 15.2399 13.3323 15.1093 13.6402C14.9801 13.9447 14.914 14.2622 14.914 14.5168V18.5259C14.914 18.9586 14.7756 19.4067 14.5825 19.7782C14.3936 20.1413 14.1033 20.5252 13.713 20.7635L12.4163 21.5971L12.4035 21.6052C10.7181 22.6423 8.34081 21.504 8.34081 19.365V14.4236C8.34081 14.2287 8.28121 13.9566 8.16274 13.6604C8.05128 13.3817 7.90875 13.1343 7.78171 12.9694L4.26979 9.27265C3.95866 8.9591 3.70333 8.5515 3.52493 8.15354C3.34808 7.75902 3.21289 7.29818 3.21289 6.87157V4.72717Z" fill="#7F7F7F"/>
</svg>
