<svg width="25" height="24" viewBox="0 0 25 24" fill="none" xmlns="http://www.w3.org/2000/svg">
<path d="M23.25 11.625C23.25 12.246 22.746 12.75 22.125 12.75H3.375C2.754 12.75 2.25 12.246 2.25 11.625C2.25 11.004 2.754 10.5 3.375 10.5H3.87975C4.37325 7.572 6.282 5.1285 8.87925 3.8865L9.10875 6.2415C9.13875 6.5505 9.408 6.783 9.723 6.747C10.032 6.717 10.2585 6.4425 10.2285 6.1335L9.83775 2.118C9.80475 1.78275 10.068 1.5 10.3973 1.5H15.102C15.4312 1.5 15.6945 1.78275 15.6622 2.11725L15.2715 6.13275C15.2415 6.44175 15.468 6.71625 15.777 6.74625C15.7957 6.74925 15.8137 6.75 15.8317 6.75C16.1175 6.75 16.3628 6.5325 16.3912 6.2415L16.6207 3.8865C19.218 5.12775 21.1267 7.57125 21.6203 10.5H22.125C22.746 10.5 23.25 11.004 23.25 11.625Z" fill="url(#paint0_linear_973_39571)"/>
<path d="M22.875 15.75H21.75C21.75 14.9227 21.0772 14.25 20.25 14.25H5.25C4.42275 14.25 3.75 14.9227 3.75 15.75H2.625C2.418 15.75 2.25 15.918 2.25 16.125V17.625C2.25 17.832 2.418 18 2.625 18H3.75V19.5C3.75 19.6995 3.82875 19.89 3.96975 20.0303L5.46975 21.5303C5.61 21.6713 5.80125 21.75 6 21.75H10.5C10.7505 21.75 10.9845 21.6248 11.124 21.4163C11.6805 20.583 12.4125 19.7392 12.75 19.5292C13.0875 19.7385 13.8195 20.5823 14.376 21.4163C14.5155 21.6248 14.7495 21.75 15 21.75H19.5C19.6987 21.75 19.89 21.6713 20.0303 21.5303L21.5303 20.0303C21.6713 19.89 21.75 19.6995 21.75 19.5V18H22.875C23.082 18 23.25 17.832 23.25 17.625V16.125C23.25 15.918 23.082 15.75 22.875 15.75ZM20.25 19.1895L19.1895 20.25H15.396C14.628 19.1557 13.6132 18 12.75 18C11.8868 18 10.872 19.1557 10.104 20.25H6.3105L5.25 19.1895L5.24925 15.75H20.25V19.1895Z" fill="url(#paint1_linear_973_39571)"/>
<defs>
<linearGradient id="paint0_linear_973_39571" x1="12.75" y1="1.5" x2="12.75" y2="12.75" gradientUnits="userSpaceOnUse">
<stop stop-color="#F7A2A8"/>
<stop offset="1" stop-color="#F9414E"/>
</linearGradient>
<linearGradient id="paint1_linear_973_39571" x1="12.75" y1="14.25" x2="12.75" y2="21.75" gradientUnits="userSpaceOnUse">
<stop stop-color="#F7A2A8"/>
<stop offset="1" stop-color="#F9414E"/>
</linearGradient>
</defs>
</svg>
