<svg width="24" height="24" viewBox="0 0 24 24" fill="none" xmlns="http://www.w3.org/2000/svg">
<path fill-rule="evenodd" clip-rule="evenodd" d="M8.13934 3.51763C8.37934 2.62004 9.19211 2 10.117 2H14.3415C15.2664 2 16.0792 2.62004 16.3192 3.51763C16.3234 3.53349 16.3271 3.54949 16.3303 3.56559L16.5728 4.77885C16.6547 5.18712 17.014 5.48201 17.4303 5.48201L17.4349 5.48202H20.6913C21.1161 5.48202 21.4605 5.82642 21.4605 6.25125C21.4605 6.67609 21.1161 7.02048 20.6913 7.02048H3.76728C3.34244 7.02048 2.99805 6.67609 2.99805 6.25125C2.99805 5.82642 3.34244 5.48202 3.76728 5.48202H7.02359L7.02819 5.48201C7.44445 5.48201 7.80372 5.18743 7.88564 4.77915L8.12815 3.56559C8.13137 3.54949 8.1351 3.53349 8.13934 3.51763ZM9.27718 5.48202H15.1813C15.1315 5.35371 15.0921 5.2197 15.0643 5.08094L14.8276 3.89668C14.7623 3.68441 14.5659 3.53846 14.3415 3.53846H10.117C9.8926 3.53846 9.69619 3.68441 9.63087 3.89667L9.39427 5.08063C9.36648 5.21939 9.32703 5.35371 9.27718 5.48202ZM19.3726 8.70653C19.796 8.74067 20.1116 9.11163 20.0775 9.53509L18.544 9.41145C18.5781 8.988 18.9491 8.67239 19.3726 8.70653ZM19.219 19.111C19.1287 19.9264 18.8213 20.6493 18.2583 21.1723C17.6935 21.6969 16.9475 21.9497 16.1152 21.9648C13.5028 22.0119 10.8858 22.0149 8.27165 21.9598C7.45593 21.943 6.72662 21.6812 6.17633 21.1568C5.62959 20.6357 5.32758 19.9203 5.2389 19.1178C5.07951 17.6787 4.86492 15.2794 4.69076 13.2478C4.60353 12.2303 4.52621 11.3022 4.47069 10.6285C4.44293 10.2916 4.42062 10.0183 4.40525 9.82922L4.38142 9.535C4.34738 9.11153 4.66306 8.74056 5.08653 8.70652C5.51 8.67247 5.88089 8.98816 5.91493 9.41163L5.93865 9.70457C5.95398 9.8932 5.97625 10.1659 6.00395 10.5022C6.05937 11.1747 6.13655 12.101 6.2236 13.1164C6.39797 15.1505 6.61104 17.5312 6.76801 18.9484C6.82607 19.4741 7.00811 19.8242 7.23775 20.0431C7.46381 20.2586 7.80317 20.4114 8.30361 20.4217C10.895 20.4763 13.492 20.4734 16.0872 20.4266C16.6231 20.4169 16.9789 20.2609 17.2112 20.0451C17.4454 19.8276 17.6305 19.4782 17.6899 18.9415C17.8459 17.5368 18.0592 15.1577 18.2341 13.1221C18.3214 12.106 18.3989 11.1782 18.4545 10.5044C18.4824 10.1675 18.5047 9.8942 18.5202 9.70512L18.544 9.41145L20.0775 9.53509" fill="#7F7F7F"/>
</svg>
