<svg width="32" height="32" viewBox="0 0 32 32" fill="none" xmlns="http://www.w3.org/2000/svg">
<path d="M0 16C0 7.16344 7.16344 0 16 0C24.8366 0 32 7.16344 32 16C32 24.8366 24.8366 32 16 32C7.16344 32 0 24.8366 0 16Z" fill="#E9F2FF"/>
<path d="M9.44134 11.6975C9.44134 10.4504 10.4524 9.43939 11.6995 9.43939H17.4345C17.771 9.43939 18.0438 9.16658 18.0438 8.83005C18.0438 8.49352 17.771 8.2207 17.4345 8.2207H11.6995C9.77929 8.2207 8.22266 9.77734 8.22266 11.6975V20.3C8.22266 22.2202 9.77929 23.7769 11.6995 23.7769H20.302C22.2222 23.7769 23.7788 22.2202 23.7788 20.3V14.565C23.7788 14.2285 23.506 13.9557 23.1695 13.9557C22.8329 13.9557 22.5601 14.2285 22.5601 14.565V17.0265C22.5506 17.0198 22.5409 17.0131 22.5311 17.0066L20.8243 15.8687C19.687 15.1105 18.1726 15.2605 17.206 16.227L14.7956 18.6375C13.829 19.604 12.3147 19.754 11.1773 18.9958L9.44134 17.8384V11.6975Z" fill="#2D84FF"/>
<path d="M21.6282 13.1307C21.6282 13.4673 21.3554 13.7401 21.0189 13.7401C20.6823 13.7401 20.4095 13.4673 20.4095 13.1307V10.3006L20.016 10.6941C19.778 10.9321 19.3922 10.9321 19.1542 10.6941C18.9163 10.4561 18.9163 10.0703 19.1542 9.83236L20.0811 8.90552C20.599 8.3876 21.4387 8.3876 21.9566 8.90552L22.8835 9.83236C23.1214 10.0703 23.1214 10.4561 22.8835 10.6941C22.6455 10.9321 22.2597 10.9321 22.0217 10.6941L21.6282 10.3006V13.1307Z" fill="#2D84FF"/>
<path d="M13.4917 15.2816C14.4815 15.2816 15.2839 14.4792 15.2839 13.4894C15.2839 12.4997 14.4815 11.6973 13.4917 11.6973C12.502 11.6973 11.6996 12.4997 11.6996 13.4894C11.6996 14.4792 12.502 15.2816 13.4917 15.2816Z" fill="#2D84FF"/>
</svg>
