<svg width="24" height="24" viewBox="0 0 24 24" fill="none" xmlns="http://www.w3.org/2000/svg">
<path d="M0 12C0 5.37258 5.37258 0 12 0C18.6274 0 24 5.37258 24 12C24 18.6274 18.6274 24 12 24C5.37258 24 0 18.6274 0 12Z" fill="#EAEAEA"/>
<path fill-rule="evenodd" clip-rule="evenodd" d="M7.46529 7.46431C7.64166 7.28794 7.9276 7.28794 8.10397 7.46431L11.9997 11.36L15.8954 7.46431C16.0717 7.28794 16.3577 7.28794 16.5341 7.46431C16.7104 7.64067 16.7104 7.92662 16.5341 8.10298L12.6384 11.9987L16.5341 15.8944C16.7104 16.0708 16.7104 16.3567 16.5341 16.5331C16.3577 16.7095 16.0718 16.7095 15.8954 16.5331L11.9997 12.6374L8.10396 16.5331C7.92759 16.7095 7.64165 16.7095 7.46528 16.5331C7.28892 16.3567 7.28892 16.0708 7.46528 15.8944L11.361 11.9987L7.46529 8.10298C7.28892 7.92662 7.28892 7.64067 7.46529 7.46431Z" fill="#525252"/>
</svg>
