<svg width="16" height="16" viewBox="0 0 16 16" fill="none" xmlns="http://www.w3.org/2000/svg">
<path fill-rule="evenodd" clip-rule="evenodd" d="M8.00065 1.8335C5.6897 1.8335 3.83398 3.66601 3.83398 5.90493C3.83398 6.55301 4.0787 7.32637 4.49657 8.1136C4.91094 8.89422 5.47499 9.64954 6.06359 10.2529C6.45114 10.6501 6.83949 10.9714 7.19128 11.1898C7.55431 11.4152 7.82871 11.5002 8.00065 11.5002C8.17259 11.5002 8.44699 11.4152 8.81002 11.1898C9.16181 10.9714 9.55016 10.6501 9.93771 10.2529C10.5263 9.64954 11.0904 8.89422 11.5047 8.1136C11.9226 7.32637 12.1673 6.55301 12.1673 5.90493C12.1673 3.66601 10.3116 1.8335 8.00065 1.8335ZM2.83398 5.90493C2.83398 3.09438 5.15695 0.833496 8.00065 0.833496C10.8444 0.833496 13.1673 3.09438 13.1673 5.90493C13.1673 6.77975 12.846 7.71956 12.388 8.58246C11.9265 9.45197 11.3046 10.2837 10.6535 10.9512C10.2255 11.3899 9.77501 11.7677 9.33752 12.0394C8.91127 12.304 8.44596 12.5002 8.00065 12.5002C7.55534 12.5002 7.09003 12.304 6.66378 12.0394C6.22629 11.7677 5.77578 11.3899 5.3478 10.9512C4.69666 10.2837 4.07485 9.45197 3.6133 8.58246C3.15526 7.71956 2.83398 6.77975 2.83398 5.90493ZM8.00065 5.16683C7.54041 5.16683 7.16732 5.53993 7.16732 6.00016C7.16732 6.4604 7.54041 6.8335 8.00065 6.8335C8.46089 6.8335 8.83398 6.4604 8.83398 6.00016C8.83398 5.53993 8.46089 5.16683 8.00065 5.16683ZM6.16732 6.00016C6.16732 4.98764 6.98813 4.16683 8.00065 4.16683C9.01317 4.16683 9.83398 4.98764 9.83398 6.00016C9.83398 7.01269 9.01317 7.8335 8.00065 7.8335C6.98813 7.8335 6.16732 7.01269 6.16732 6.00016Z" fill="#7F7F7F"/>
<path fill-rule="evenodd" clip-rule="evenodd" d="M6.39336 10.7311C6.42754 11.0051 6.23312 11.255 5.9591 11.2892C4.85153 11.4273 3.93374 11.6715 3.3084 11.9668C2.99484 12.1148 2.77892 12.2645 2.64804 12.3997C2.51929 12.5327 2.5 12.6213 2.5 12.6668C2.5 12.724 2.53437 12.8582 2.781 13.0525C3.02199 13.2425 3.4017 13.4354 3.91547 13.6066C4.9378 13.9474 6.38193 14.1668 8 14.1668C9.61807 14.1668 11.0622 13.9474 12.0845 13.6066C12.5983 13.4354 12.978 13.2425 13.219 13.0525C13.4656 12.8582 13.5 12.724 13.5 12.6668C13.5 12.6213 13.4807 12.5327 13.352 12.3997C13.2211 12.2645 13.0052 12.1148 12.6916 11.9668C12.0663 11.6715 11.1485 11.4273 10.0409 11.2892C9.76688 11.255 9.57246 11.0051 9.60664 10.7311C9.64082 10.4571 9.89067 10.2627 10.1647 10.2969C11.3336 10.4427 12.3645 10.7064 13.1186 11.0625C13.4948 11.2402 13.8263 11.452 14.0704 11.7042C14.3167 11.9586 14.5 12.2833 14.5 12.6668C14.5 13.1618 14.1986 13.5538 13.838 13.8379C13.4717 14.1266 12.9728 14.3646 12.4008 14.5553C11.2515 14.9384 9.69564 15.1668 8 15.1668C6.30436 15.1668 4.74849 14.9384 3.59925 14.5553C3.02724 14.3646 2.52826 14.1266 2.16202 13.8379C1.80142 13.5538 1.5 13.1618 1.5 12.6668C1.5 12.2833 1.6833 11.9586 1.92956 11.7042C2.1737 11.452 2.50523 11.2402 2.88141 11.0625C3.63554 10.7064 4.66635 10.4427 5.83531 10.2969C6.10933 10.2627 6.35918 10.4571 6.39336 10.7311Z" fill="#7F7F7F"/>
</svg>
