<svg width="25" height="24" viewBox="0 0 25 24" fill="none" xmlns="http://www.w3.org/2000/svg">
<path d="M20 7.50086L18.51 8.99086L15.51 5.99086L17 4.50086C17.42 4.08086 17.96 3.88086 18.5 3.88086C19.04 3.88086 19.58 4.08086 20 4.50086C20.83 5.33086 20.83 6.67086 20 7.50086Z" fill="#E81D2C"/>
<path d="M17.81 9.69922L7 20.4992C6.17 21.3292 4.83 21.3292 4 20.4992C3.17 19.6692 3.17 18.3292 4 17.4992L14.81 6.69922L17.81 9.69922Z" fill="#E81D2C"/>
<path d="M10.45 3.50051L10.86 2.11051C10.9 1.98051 10.86 1.84051 10.77 1.74051C10.68 1.64051 10.52 1.60051 10.39 1.64051L9.00002 2.05051L7.61002 1.64051C7.48002 1.60051 7.34002 1.64051 7.24002 1.73051C7.14002 1.83051 7.11002 1.97051 7.15002 2.10051L7.55002 3.50051L7.14002 4.89051C7.10002 5.0205 7.14002 5.16051 7.23002 5.26051C7.33002 5.36051 7.47002 5.39051 7.60002 5.35051L9.00002 4.95051L10.39 5.36051C10.43 5.37051 10.46 5.38051 10.5 5.38051C10.6 5.38051 10.69 5.34051 10.77 5.27051C10.87 5.17051 10.9 5.03051 10.86 4.90051L10.45 3.50051Z" fill="#E81D2C"/>
<path d="M6.45002 9.50051L6.86002 8.1105C6.90002 7.9805 6.86002 7.84051 6.77002 7.74051C6.67002 7.64051 6.53002 7.61051 6.40002 7.65051L5.00002 8.05051L3.61002 7.64051C3.48002 7.60051 3.34002 7.64051 3.24002 7.73051C3.14002 7.83051 3.11002 7.97051 3.15002 8.10051L3.55002 9.50051L3.14002 10.8905C3.10002 11.0205 3.14002 11.1605 3.23002 11.2605C3.33002 11.3605 3.47002 11.3905 3.60002 11.3505L4.99002 10.9405L6.38002 11.3505C6.41002 11.3605 6.45002 11.3605 6.49002 11.3605C6.59002 11.3605 6.68002 11.3205 6.76002 11.2505C6.86002 11.1505 6.89002 11.0105 6.85002 10.8805L6.45002 9.50051Z" fill="#E81D2C"/>
<path d="M21.45 14.5L21.86 13.11C21.9 12.98 21.86 12.84 21.77 12.74C21.67 12.64 21.53 12.61 21.4 12.65L20.01 13.06L18.62 12.65C18.49 12.61 18.35 12.65 18.25 12.74C18.15 12.84 18.12 12.98 18.16 13.11L18.57 14.5L18.16 15.89C18.12 16.02 18.16 16.16 18.25 16.26C18.35 16.36 18.49 16.39 18.62 16.35L20.01 15.94L21.4 16.35C21.43 16.36 21.47 16.36 21.51 16.36C21.61 16.36 21.7 16.32 21.78 16.25C21.88 16.15 21.91 16.01 21.87 15.88L21.45 14.5Z" fill="#E81D2C"/>
</svg>
