<svg width="24" height="24" viewBox="0 0 24 24" fill="none" xmlns="http://www.w3.org/2000/svg">
<path d="M21.2499 18.47L19.5999 18.86C19.2299 18.95 18.9399 19.23 18.8599 19.6L18.5099 21.07C18.3199 21.87 17.2999 22.12 16.7699 21.49L13.7799 18.05C13.5399 17.77 13.6699 17.33 14.0299 17.24C15.7999 16.81 17.3899 15.82 18.5599 14.41C18.7499 14.18 19.0899 14.15 19.2999 14.36L21.5199 16.58C22.2799 17.34 22.0099 18.29 21.2499 18.47Z" fill="url(#paint0_linear_973_39605)"/>
<path d="M2.69992 18.47L4.34992 18.86C4.71992 18.95 5.00992 19.23 5.08992 19.6L5.43992 21.07C5.62992 21.87 6.64992 22.12 7.17992 21.49L10.1699 18.05C10.4099 17.77 10.2799 17.33 9.91992 17.24C8.14992 16.81 6.55992 15.82 5.38992 14.41C5.19992 14.18 4.85992 14.15 4.64992 14.36L2.42992 16.58C1.66992 17.34 1.93992 18.29 2.69992 18.47Z" fill="url(#paint1_linear_973_39605)"/>
<path d="M11.9999 2C8.12988 2 4.99988 5.13 4.99988 9C4.99988 10.45 5.42988 11.78 6.16988 12.89C7.24988 14.49 8.95988 15.62 10.9499 15.91C11.2899 15.97 11.6399 16 11.9999 16C12.3599 16 12.7099 15.97 13.0499 15.91C15.0399 15.62 16.7499 14.49 17.8299 12.89C18.5699 11.78 18.9999 10.45 18.9999 9C18.9999 5.13 15.8699 2 11.9999 2ZM15.0599 8.78L14.2299 9.61C14.0899 9.75 14.0099 10.02 14.0599 10.22L14.2999 11.25C14.4899 12.06 14.0599 12.38 13.3399 11.95L12.3399 11.36C12.1599 11.25 11.8599 11.25 11.6799 11.36L10.6799 11.95C9.95988 12.37 9.52988 12.06 9.71988 11.25L9.95988 10.22C9.99988 10.03 9.92988 9.75 9.78988 9.61L8.93988 8.78C8.44988 8.29 8.60988 7.8 9.28988 7.69L10.3599 7.51C10.5399 7.48 10.7499 7.32 10.8299 7.16L11.4199 5.98C11.7399 5.34 12.2599 5.34 12.5799 5.98L13.1699 7.16C13.2499 7.32 13.4599 7.48 13.6499 7.51L14.7199 7.69C15.3899 7.8 15.5499 8.29 15.0599 8.78Z" fill="url(#paint2_linear_973_39605)"/>
<defs>
<linearGradient id="paint0_linear_973_39605" x1="17.8152" y1="14.2187" x2="17.8152" y2="21.8452" gradientUnits="userSpaceOnUse">
<stop stop-color="#F7A2A8"/>
<stop offset="1" stop-color="#F9414E"/>
</linearGradient>
<linearGradient id="paint1_linear_973_39605" x1="6.13462" y1="14.2187" x2="6.13462" y2="21.8452" gradientUnits="userSpaceOnUse">
<stop stop-color="#F7A2A8"/>
<stop offset="1" stop-color="#F9414E"/>
</linearGradient>
<linearGradient id="paint2_linear_973_39605" x1="11.9999" y1="2" x2="11.9999" y2="16" gradientUnits="userSpaceOnUse">
<stop stop-color="#F7A2A8"/>
<stop offset="1" stop-color="#F9414E"/>
</linearGradient>
</defs>
</svg>
