<svg width="48" height="48" viewBox="0 0 48 48" fill="none" xmlns="http://www.w3.org/2000/svg">
<g clip-path="url(#clip0_1876_9822)">
<rect width="48" height="48" rx="12" fill="#EE0033"/>
<path d="M48 43.1428C48 51.6243 41.1096 58.5 32.6099 58.5C32.5528 58.5 32.4957 58.4998 32.4387 58.4993C32.3872 58.4998 32.3357 58.5 32.2842 58.5L13.2142 58.5C3.4309 58.5 -4.5 50.586 -4.5 40.8236C-4.5 31.0613 3.4309 23.1473 13.2142 23.1473L23.8634 23.1473C35.3256 23.1473 44.9899 15.4667 47.9699 4.98184C47.9747 4.96486 48 4.9681 48 4.98576L48 43.1428Z" fill="#D71630"/>
<path fill-rule="evenodd" clip-rule="evenodd" d="M22.8281 9.9375C22.8281 9.29029 23.3528 8.76562 24 8.76562C32.4137 8.76562 39.2344 15.5863 39.2344 24C39.2344 24.6472 38.7097 25.1719 38.0625 25.1719C37.4153 25.1719 36.8906 24.6472 36.8906 24C36.8906 16.8807 31.1193 11.1094 24 11.1094C23.3528 11.1094 22.8281 10.5847 22.8281 9.9375ZM9.9375 22.8281C10.5847 22.8281 11.1094 23.3528 11.1094 24C11.1094 31.1193 16.8807 36.8906 24 36.8906C24.6472 36.8906 25.1719 37.4153 25.1719 38.0625C25.1719 38.7097 24.6472 39.2344 24 39.2344C15.5863 39.2344 8.76562 32.4137 8.76562 24C8.76562 23.3528 9.29029 22.8281 9.9375 22.8281ZM14.6484 9.375C14.0077 9.375 13.4883 9.89442 13.4883 10.5352V11.4443L14.8359 11.0508C15.9363 10.7295 17.0437 11.5315 17.0437 12.6496V19.1719H16.3242V12.8638C16.3242 12.0866 15.5751 11.5292 14.8307 11.7525L10.7057 12.8353C10.215 12.9826 9.87896 13.4342 9.87896 13.9466V19.1719H9.23438C9.0208 19.1719 8.84766 19.345 8.84766 19.5586C8.84766 19.7722 9.0208 19.9453 9.23438 19.9453H20.5781C20.7917 19.9453 20.9648 19.7722 20.9648 19.5586C20.9648 19.345 20.7917 19.1719 20.5781 19.1719H19.9336V11.3086C19.9336 10.5718 19.2891 10.2773 18.7734 10.1484L14.6484 9.375ZM13.7461 16.9805V19.1719H12.9727V16.9805C12.9727 16.7669 13.1458 16.5938 13.3594 16.5938C13.573 16.5938 13.7461 16.7669 13.7461 16.9805ZM34.9896 30.2292C34.9896 31.4948 33.9636 32.5208 32.6979 32.5208C31.4323 32.5208 30.4062 31.4948 30.4062 30.2292C30.4062 28.9635 31.4323 27.9375 32.6979 27.9375C33.9636 27.9375 34.9896 28.9635 34.9896 30.2292ZM36.7083 35.9583C36.7083 37.224 34.9128 38.25 32.6979 38.25C30.483 38.25 28.6875 37.224 28.6875 35.9583C28.6875 34.6927 30.483 33.6667 32.6979 33.6667C34.9128 33.6667 36.7083 34.6927 36.7083 35.9583ZM34.9672 32.4153C35.513 31.8487 35.8487 31.0782 35.8487 30.2294C35.8487 29.8257 35.7728 29.4397 35.6344 29.085C36.5502 29.1229 37.2809 29.8772 37.2809 30.8023C37.2809 31.7515 36.5114 32.521 35.5622 32.521C35.353 32.521 35.1526 32.4837 34.9672 32.4153ZM37.3712 36.8471C37.4991 36.5652 37.5677 36.2668 37.5677 35.9582C37.5677 35.0649 36.9933 34.2585 36.0705 33.6851C37.7281 33.8079 38.9999 34.5223 38.9999 35.3852C38.9999 36.0027 38.3488 36.5441 37.3712 36.8471Z" fill="white"/>
</g>
<defs>
<clipPath id="clip0_1876_9822">
<rect width="48" height="48" rx="12" fill="white"/>
</clipPath>
</defs>
</svg>
