<svg width="48" height="48" viewBox="0 0 48 48" fill="none" xmlns="http://www.w3.org/2000/svg">
<g clip-path="url(#clip0_1876_9918)">
<rect width="48" height="48" rx="12" fill="#EE0033"/>
<path d="M48 43.1428C48 51.6243 41.1096 58.5 32.6099 58.5C32.5528 58.5 32.4957 58.4998 32.4387 58.4993C32.3872 58.4998 32.3357 58.5 32.2842 58.5L13.2142 58.5C3.4309 58.5 -4.5 50.586 -4.5 40.8236C-4.5 31.0613 3.4309 23.1473 13.2142 23.1473L23.8634 23.1473C35.3256 23.1473 44.9899 15.4667 47.9699 4.98184C47.9747 4.96486 48 4.9681 48 4.98576L48 43.1428Z" fill="#D71630"/>
<path fill-rule="evenodd" clip-rule="evenodd" d="M20.8756 13.8329C20.8756 15.1676 19.7937 16.2496 18.459 16.2496C17.1243 16.2496 16.0423 15.1676 16.0423 13.8329C16.0423 12.4982 17.1243 11.4163 18.459 11.4163C19.7937 11.4163 20.8756 12.4982 20.8756 13.8329ZM22.0846 18.6663C22.0846 20.001 20.4617 21.083 18.4596 21.083C16.4576 21.083 14.8346 20.001 14.8346 18.6663C14.8346 17.3317 16.4576 16.2497 18.4596 16.2497C20.4617 16.2497 22.0846 17.3317 22.0846 18.6663ZM31.7513 30.7496C33.086 30.7496 34.168 29.6676 34.168 28.3329C34.168 26.9982 33.086 25.9163 31.7513 25.9163C30.4166 25.9163 29.3346 26.9982 29.3346 28.3329C29.3346 29.6676 30.4166 30.7496 31.7513 30.7496ZM23.5947 12.6247C23.5947 12.1242 24.0005 11.7184 24.501 11.7184C31.0076 11.7184 36.2822 16.9931 36.2822 23.4997C36.2822 24.0002 35.8765 24.4059 35.376 24.4059C34.8755 24.4059 34.4697 24.0002 34.4697 23.4997C34.4697 17.9941 30.0066 13.5309 24.501 13.5309C24.0005 13.5309 23.5947 13.1252 23.5947 12.6247ZM13.626 22.5934C14.1265 22.5934 14.5322 22.9992 14.5322 23.4997C14.5322 29.0053 18.9954 33.4684 24.501 33.4684C25.0015 33.4684 25.4072 33.8742 25.4072 34.3747C25.4072 34.8752 25.0015 35.2809 24.501 35.2809C17.9944 35.2809 12.7197 30.0063 12.7197 23.4997C12.7197 22.9992 13.1255 22.5934 13.626 22.5934ZM31.751 35.583C33.753 35.583 35.376 34.501 35.376 33.1663C35.376 31.8317 33.753 30.7497 31.751 30.7497C29.7489 30.7497 28.126 31.8317 28.126 33.1663C28.126 34.501 29.7489 35.583 31.751 35.583Z" fill="white"/>
</g>
<defs>
<clipPath id="clip0_1876_9918">
<rect width="48" height="48" rx="12" fill="white"/>
</clipPath>
</defs>
</svg>
