<svg width="16" height="16" viewBox="0 0 16 16" fill="none" xmlns="http://www.w3.org/2000/svg">
<g clip-path="url(#clip0_1298_18018)">
<path fill-rule="evenodd" clip-rule="evenodd" d="M5.86857 10.5172C5.86857 13.085 7.95016 15.1666 10.5179 15.1666C13.0857 15.1666 15.1673 13.085 15.1673 10.5172C15.1673 7.94944 13.0857 5.86785 10.5179 5.86785C7.95016 5.86785 5.86857 7.94944 5.86857 10.5172ZM10.5179 14.1666C8.50244 14.1666 6.86857 12.5327 6.86857 10.5172C6.86857 8.50172 8.50244 6.86785 10.5179 6.86785C12.5335 6.86785 14.1673 8.50172 14.1673 10.5172C14.1673 12.5327 12.5335 14.1666 10.5179 14.1666Z" fill="#7F7F7F"/>
<path d="M10.7653 10.3033C10.7179 10.2852 10.6735 10.2684 10.6352 10.2516C10.5932 10.233 10.543 10.2137 10.4875 10.1927C10.1718 10.0728 10.0006 9.97808 10.0006 9.82126C10.0006 9.75201 10.0745 9.64451 10.2156 9.57304C10.3156 9.52251 10.6766 9.38407 11.1365 9.72214C11.1718 9.74839 11.2119 9.76742 11.2545 9.77812C11.2971 9.78882 11.3415 9.79098 11.3849 9.78449C11.4284 9.77799 11.4701 9.76297 11.5078 9.74027C11.5454 9.71758 11.5782 9.68767 11.6042 9.65226C11.6302 9.61685 11.649 9.57664 11.6594 9.53395C11.6699 9.49126 11.6718 9.44693 11.665 9.4035C11.6582 9.36008 11.6429 9.31842 11.62 9.28093C11.5971 9.24344 11.567 9.21085 11.5314 9.18504C11.3244 9.03067 11.0865 8.92277 10.834 8.8687V8.56692C10.8331 8.47907 10.7976 8.39512 10.7352 8.3333C10.6728 8.27148 10.5885 8.2368 10.5006 8.2368C10.4128 8.2368 10.3285 8.27148 10.2661 8.3333C10.2036 8.39512 10.1681 8.47907 10.1673 8.56692V8.88439C10.0802 8.90703 9.99552 8.93844 9.91471 8.97814C9.55645 9.15939 9.33399 9.48245 9.33399 9.82123C9.33399 10.4677 9.95314 10.7029 10.2508 10.8159C10.294 10.8322 10.3334 10.847 10.3661 10.8615C10.4138 10.8825 10.4686 10.9037 10.5274 10.9261C10.8547 11.0511 11.0007 11.1337 11.0007 11.2918C11.0007 11.361 10.9268 11.4685 10.7857 11.5398C10.6857 11.5903 10.3249 11.7289 9.86477 11.3907C9.79354 11.3384 9.70443 11.3165 9.61704 11.3298C9.52965 11.3431 9.45114 11.3906 9.39878 11.4619C9.34642 11.5331 9.3245 11.6222 9.33784 11.7096C9.35119 11.797 9.3987 11.8755 9.46992 11.9279C9.67684 12.0829 9.91471 12.1915 10.1674 12.2464V12.5669C10.1682 12.6548 10.2037 12.7387 10.2661 12.8005C10.3285 12.8624 10.4128 12.897 10.5007 12.897C10.5885 12.897 10.6728 12.8624 10.7353 12.8005C10.7977 12.7387 10.8332 12.6548 10.834 12.5669V12.2299C10.9212 12.2068 11.0058 12.1749 11.0866 12.1348C11.4449 11.9535 11.6673 11.6305 11.6673 11.2918C11.6673 10.648 11.0805 10.4238 10.7653 10.3033Z" fill="#7F7F7F"/>
<path fill-rule="evenodd" clip-rule="evenodd" d="M2.35662 5.32379C3.20272 5.73919 4.33215 5.98263 5.53869 5.98263C6.74531 5.98263 7.86241 5.73915 8.69636 5.32218C9.5004 4.92016 10.1881 4.27226 10.1881 3.40794C10.1881 2.54362 9.5004 1.89573 8.69636 1.4937C7.86241 1.07673 6.74531 0.833252 5.53869 0.833252C4.33215 0.833252 3.20272 1.07669 2.35662 1.49209C1.54486 1.89063 0.833989 2.53705 0.833989 3.40794C0.833989 4.27884 1.54486 4.92525 2.35662 5.32379ZM2.79733 4.42614C2.07964 4.07379 1.83399 3.68286 1.83399 3.40794C1.83399 3.13303 2.07964 2.7421 2.79733 2.38974C3.48067 2.05425 4.45359 1.83325 5.53869 1.83325C6.62372 1.83325 7.58131 2.05421 8.24914 2.38813C8.94688 2.737 9.18807 3.12645 9.18807 3.40794C9.18807 3.68943 8.94688 4.07888 8.24914 4.42775C7.58131 4.76167 6.62372 4.98263 5.53869 4.98263C4.45359 4.98263 3.48067 4.76163 2.79733 4.42614Z" fill="#7F7F7F"/>
<path fill-rule="evenodd" clip-rule="evenodd" d="M2.35663 7.86877C3.20274 8.28417 4.33216 8.5276 5.5387 8.5276C6.23334 8.5276 6.89472 8.447 7.48805 8.301L7.24911 7.32997C6.73848 7.45562 6.15759 7.5276 5.5387 7.5276C4.4536 7.5276 3.48067 7.30661 2.79734 6.97112C2.07966 6.61877 1.834 6.22784 1.834 5.95291H0.834C0.834 6.82382 1.54487 7.47023 2.35663 7.86877Z" fill="#7F7F7F"/>
<path fill-rule="evenodd" clip-rule="evenodd" d="M2.79733 11.9504C2.07964 11.598 1.83399 11.2071 1.83399 10.9322V3.40794H0.833989V10.9322C0.833989 11.8031 1.54486 12.4495 2.35662 12.848C3.20272 13.2634 4.33215 13.5069 5.53869 13.5069C6.11927 13.5069 6.67627 13.4506 7.18951 13.347L6.99172 12.3667C6.54613 12.4567 6.05549 12.5069 5.53869 12.5069C4.45359 12.5069 3.48067 12.2859 2.79733 11.9504Z" fill="#7F7F7F"/>
<path fill-rule="evenodd" clip-rule="evenodd" d="M10.1881 6.45086V3.40794H9.18807V6.45086H10.1881Z" fill="#7F7F7F"/>
<path fill-rule="evenodd" clip-rule="evenodd" d="M2.35661 10.3584C3.20272 10.7738 4.33214 11.0172 5.53869 11.0172C5.83969 11.0172 6.13414 11.0021 6.41927 10.9731L6.3183 9.97824C6.067 10.0037 5.80626 10.0172 5.53869 10.0172C4.45359 10.0172 3.48066 9.79621 2.79732 9.46072C2.07964 9.10837 1.83398 8.71744 1.83398 8.44252H0.833984C0.833984 9.31342 1.54486 9.95983 2.35661 10.3584Z" fill="#7F7F7F"/>
</g>
<defs>
<clipPath id="clip0_1298_18018">
<rect width="16" height="16" fill="white"/>
</clipPath>
</defs>
</svg>
