<svg width="25" height="24" viewBox="0 0 25 24" fill="none" xmlns="http://www.w3.org/2000/svg">
<path d="M18.25 3H6.25C4.04 3 2.25 4.78 2.25 6.97V17.03C2.25 19.22 4.04 21 6.25 21H18.25C20.46 21 22.25 19.22 22.25 17.03V6.97C22.25 4.78 20.46 3 18.25 3ZM8.75 7.17C10.02 7.17 11.06 8.21 11.06 9.48C11.06 10.75 10.02 11.79 8.75 11.79C7.48 11.79 6.44 10.75 6.44 9.48C6.44 8.21 7.48 7.17 8.75 7.17ZM12.62 16.66C12.53 16.76 12.39 16.82 12.25 16.82H5.25C5.11 16.82 4.97 16.76 4.88 16.66C4.83422 16.6084 4.79915 16.5483 4.77683 16.4831C4.75451 16.4178 4.74539 16.3488 4.75 16.28C4.83359 15.4644 5.19705 14.7029 5.7786 14.125C6.36015 13.5471 7.1239 13.1885 7.94 13.11C8.4755 13.06 9.0145 13.06 9.55 13.11C11.23 13.27 12.58 14.6 12.74 16.28C12.76 16.42 12.71 16.56 12.62 16.66ZM19.25 16.75H17.25C16.84 16.75 16.5 16.41 16.5 16C16.5 15.59 16.84 15.25 17.25 15.25H19.25C19.66 15.25 20 15.59 20 16C20 16.41 19.66 16.75 19.25 16.75ZM19.25 12.75H15.25C14.84 12.75 14.5 12.41 14.5 12C14.5 11.59 14.84 11.25 15.25 11.25H19.25C19.66 11.25 20 11.59 20 12C20 12.41 19.66 12.75 19.25 12.75ZM19.25 8.75H14.25C13.84 8.75 13.5 8.41 13.5 8C13.5 7.59 13.84 7.25 14.25 7.25H19.25C19.66 7.25 20 7.59 20 8C20 8.41 19.66 8.75 19.25 8.75Z" fill="url(#paint0_linear_973_39594)"/>
<defs>
<linearGradient id="paint0_linear_973_39594" x1="12.25" y1="3" x2="12.25" y2="21" gradientUnits="userSpaceOnUse">
<stop stop-color="#F7A2A8"/>
<stop offset="1" stop-color="#F9414E"/>
</linearGradient>
</defs>
</svg>
