<svg width="28" height="28" viewBox="0 0 28 28" fill="none" xmlns="http://www.w3.org/2000/svg">
<path d="M13.5098 2.33301C13.7743 2.33301 14.0363 2.35918 14.292 2.41016V7C14.292 10.0605 16.7726 12.5418 19.833 12.542H24.4238C24.4747 12.7973 24.5 13.059 24.5 13.3232V21.667C24.4998 23.876 22.709 25.667 20.5 25.667H7.5C5.29097 25.667 3.50018 23.876 3.5 21.667V6.33301C3.50018 4.12402 5.29097 2.33301 7.5 2.33301H13.5098ZM19.041 15.9043C18.5627 15.9044 18.163 15.987 17.8418 16.1533C17.4203 16.3698 17.0996 16.6804 16.8809 17.0859C16.6621 17.4915 16.5527 17.9557 16.5527 18.4775C16.5527 18.9581 16.6509 19.4035 16.8467 19.8135C17.0426 20.2213 17.336 20.5358 17.7256 20.7568C18.1151 20.9755 18.5718 21.0849 19.0957 21.085C19.5081 21.085 19.9154 21.0075 20.3164 20.8525C20.7196 20.6953 21.0274 20.5146 21.2393 20.3096V18.3135H19.0586V19.1572H20.2168V19.793C20.0641 19.9114 19.8812 20.0134 19.667 20.0977C19.4551 20.1797 19.2432 20.2207 19.0312 20.2207C18.6029 20.2207 18.2565 20.0726 17.9922 19.7764C17.7279 19.4779 17.5957 19.0312 17.5957 18.4365C17.5957 17.8851 17.7256 17.4688 17.9854 17.1885C18.2473 16.9085 18.5993 16.7687 19.041 16.7686C19.3326 16.7686 19.5759 16.84 19.7695 16.9834C19.9653 17.1246 20.0983 17.3186 20.1689 17.5645L21.1738 17.377C21.0736 16.9167 20.848 16.5566 20.4971 16.2969C20.1485 16.035 19.6629 15.9043 19.041 15.9043ZM7 15.9893V21H8.01172V19.1094H8.6709C9.12891 19.1094 9.47917 19.0859 9.7207 19.0381C9.8984 18.9994 10.0723 18.9202 10.2432 18.8018C10.4163 18.681 10.5592 18.5163 10.6709 18.3066C10.7826 18.097 10.8379 17.8379 10.8379 17.5303C10.8378 17.1317 10.7415 16.8072 10.5479 16.5566C10.3542 16.3037 10.1133 16.1396 9.82617 16.0645C9.63913 16.0144 9.23778 15.9893 8.62305 15.9893H7ZM11.6787 15.9893V21H12.6191V17.7324L14.6387 21H15.6543V15.9893H14.7139V19.335L12.6631 15.9893H11.6787ZM8.5 16.8369C8.86458 16.8369 9.10775 16.8483 9.22852 16.8711C9.39234 16.9007 9.52774 16.9746 9.63477 17.0928C9.74177 17.2112 9.7958 17.3619 9.7959 17.5439C9.7959 17.6919 9.75701 17.822 9.67969 17.9336C9.60452 18.0452 9.4996 18.1273 9.36523 18.1797C9.23079 18.2321 8.96419 18.2588 8.56543 18.2588H8.01172V16.8369H8.5ZM16.042 3.23633C16.1447 3.32033 16.2432 3.41023 16.3379 3.50488L23.3281 10.4951C23.4229 10.5899 23.5126 10.6891 23.5967 10.792H19.833C17.7391 10.7918 16.042 9.09397 16.042 7V3.23633Z" fill="#525252"/>
</svg>
