<svg width="25" height="24" viewBox="0 0 25 24" fill="none" xmlns="http://www.w3.org/2000/svg">
<path fill-rule="evenodd" clip-rule="evenodd" d="M16.6911 2H8.31012C5.27012 2 3.50012 3.78 3.50012 6.83V17.16C3.50012 20.26 5.27012 22 8.31012 22H14.5152C14.5051 21.9 14.5 21.7984 14.5 21.6953C14.5 20.9522 14.766 20.2858 15.2449 19.7654C15.6803 19.2923 16.2242 19.0111 16.716 18.835C16.1474 18.1163 15.8084 17.2052 15.8084 16.2115C15.8084 13.8774 17.6791 12 20 12C20.5291 12 21.0347 12.0975 21.5001 12.2757V6.83C21.5001 3.78 19.7801 2 16.6911 2ZM7.99668 6.98513C7.51343 6.98513 7.12168 7.37688 7.12168 7.86013C7.12168 8.34338 7.51343 8.73513 7.99668 8.73513H15.9967C16.4799 8.73513 16.8717 8.34338 16.8717 7.86013C16.8717 7.37688 16.4799 6.98513 15.9967 6.98513H7.99668ZM7.12168 12.0369C7.12168 11.5536 7.51343 11.1619 7.99668 11.1619H12.9967C13.4799 11.1619 13.8717 11.5536 13.8717 12.0369C13.8717 12.5201 13.4799 12.9119 12.9967 12.9119H7.99668C7.51343 12.9119 7.12168 12.5201 7.12168 12.0369ZM7.12168 16.2234C7.12168 15.7401 7.51343 15.3484 7.99668 15.3484H10.9967C11.4799 15.3484 11.8717 15.7401 11.8717 16.2234C11.8717 16.7066 11.4799 17.0984 10.9967 17.0984H7.99668C7.51343 17.0984 7.12168 16.7066 7.12168 16.2234ZM19.0721 16.2115C19.0721 15.691 19.4796 15.2804 20 15.2804C20.5206 15.2804 20.9278 15.6908 20.9278 16.2115C20.9278 16.7327 20.5202 17.1432 20 17.1432C19.4801 17.1432 19.0721 16.7325 19.0721 16.2115Z" fill="url(#paint0_linear_973_39577)"/>
<path fill-rule="evenodd" clip-rule="evenodd" d="M22.8699 16.2853C22.8699 17.6926 21.7416 18.8211 20.3332 18.8211C18.9254 18.8211 17.7965 17.6926 17.7965 16.2853C17.7965 14.878 18.9254 13.75 20.3332 13.75C21.7416 13.75 22.8699 14.878 22.8699 16.2853ZM20.3333 23.3333C18.2549 23.3333 16.5 22.9955 16.5 21.6922C16.5 20.3884 18.2659 20.0625 20.3333 20.0625C22.4123 20.0625 24.1667 20.4003 24.1667 21.7037C24.1667 23.0075 22.4008 23.3333 20.3333 23.3333Z" fill="url(#paint1_linear_973_39577)"/>
<defs>
<linearGradient id="paint0_linear_973_39577" x1="12.5001" y1="2" x2="12.5001" y2="22" gradientUnits="userSpaceOnUse">
<stop stop-color="#F7A2A8"/>
<stop offset="1" stop-color="#F9414E"/>
</linearGradient>
<linearGradient id="paint1_linear_973_39577" x1="20.3333" y1="13.75" x2="20.3333" y2="23.3333" gradientUnits="userSpaceOnUse">
<stop stop-color="#F7A2A8"/>
<stop offset="1" stop-color="#F9414E"/>
</linearGradient>
</defs>
</svg>
