<svg width="24" height="24" viewBox="0 0 24 24" fill="none" xmlns="http://www.w3.org/2000/svg">
<path d="M5.93391 15.321H5.89293V13.5511C6.59432 13.3024 7.09828 12.6326 7.09828 11.8467C7.09828 10.8499 6.28708 10.0387 5.29025 10.0387C4.29342 10.0387 3.48221 10.8499 3.48221 11.8467C3.48221 12.6326 3.98617 13.3024 4.68757 13.5511V15.321H2.31703C1.98436 15.321 1.71436 15.591 1.71436 15.9237V20.7451C1.71436 21.0782 1.98436 21.3478 2.31703 21.3478H5.91743L8.58489 18.3532L5.93391 15.321Z" fill="url(#paint0_linear_973_39563)"/>
<path d="M12.4047 15.321H11.7991V10.7386C12.5005 10.4899 13.0045 9.82012 13.0045 9.03423C13.0045 8.0374 12.1933 7.2262 11.1965 7.2262C10.1996 7.2262 9.38843 8.0374 9.38843 9.03423C9.38843 9.82012 9.89239 10.4899 10.5938 10.7386V15.321H7.53459L9.84204 17.9603C10.0421 18.1889 10.0405 18.5308 9.83843 18.7578L7.53137 21.3478H12.3878L15.0552 18.3532L12.4047 15.321Z" fill="url(#paint1_linear_973_39563)"/>
<path d="M22.1332 17.9111L20.0062 15.5233C19.892 15.3947 19.7281 15.3212 19.5562 15.3212H16.773V9.53464H21.6832C22.1705 9.55051 22.4704 8.93426 22.1577 8.56072L20.7254 6.72978L22.1641 4.8229C22.4674 4.44731 22.1654 3.84178 21.6832 3.85741H16.1703C15.8372 3.85741 15.5676 4.12701 15.5676 4.46009V15.3212H14.0054L16.3129 17.9605C16.5126 18.1891 16.511 18.531 16.3089 18.758L14.0018 21.3479H19.5561C19.7301 21.3479 19.8952 21.2728 20.0097 21.1418L22.1368 18.7086C22.3369 18.48 22.3353 18.1381 22.1332 17.9111Z" fill="url(#paint2_linear_973_39563)"/>
<defs>
<linearGradient id="paint0_linear_973_39563" x1="5.14962" y1="10.0387" x2="5.14962" y2="21.3478" gradientUnits="userSpaceOnUse">
<stop stop-color="#F7A2A8"/>
<stop offset="1" stop-color="#F9414E"/>
</linearGradient>
<linearGradient id="paint1_linear_973_39563" x1="11.2933" y1="7.2262" x2="11.2933" y2="21.3478" gradientUnits="userSpaceOnUse">
<stop stop-color="#F7A2A8"/>
<stop offset="1" stop-color="#F9414E"/>
</linearGradient>
<linearGradient id="paint2_linear_973_39563" x1="18.1438" y1="3.85712" x2="18.1438" y2="21.3479" gradientUnits="userSpaceOnUse">
<stop stop-color="#F7A2A8"/>
<stop offset="1" stop-color="#F9414E"/>
</linearGradient>
</defs>
</svg>
