<svg width="20" height="20" viewBox="0 0 20 20" fill="none" xmlns="http://www.w3.org/2000/svg">
<path fill-rule="evenodd" clip-rule="evenodd" d="M9.51429 3.125C5.98558 3.125 3.125 5.98558 3.125 9.51428C3.125 13.043 5.98558 15.9036 9.51429 15.9036C13.043 15.9036 15.9036 13.043 15.9036 9.51428C15.9036 5.98558 13.043 3.125 9.51429 3.125ZM1.875 9.51428C1.875 5.29522 5.29522 1.875 9.51429 1.875C13.7333 1.875 17.1536 5.29522 17.1536 9.51428C17.1536 11.4916 16.4023 13.2935 15.1697 14.6501L17.942 17.4224C18.1861 17.6665 18.1861 18.0622 17.942 18.3063C17.6979 18.5504 17.3022 18.5504 17.0581 18.3063L14.256 15.5042C12.9533 16.5369 11.3058 17.1536 9.51429 17.1536C5.29522 17.1536 1.875 13.7333 1.875 9.51428Z" fill="#7F7F7F"/>
</svg>
