<svg width="24" height="24" viewBox="0 0 24 24" fill="none" xmlns="http://www.w3.org/2000/svg">
<path d="M23.544 8.49642L21.9418 14.4756C21.8121 14.9595 21.5183 15.3144 21.0941 15.5805L19.2307 16.7488C18.8078 17.014 18.5453 17.3378 18.3907 17.7348L14.785 15.6531L14.8936 14.8336C14.9595 14.3369 15.1933 13.9329 15.591 13.6282L18.9577 11.7021C19.4873 11.3991 20.1707 11.5852 20.4737 12.1148C20.6727 12.466 20.5513 12.9187 20.2002 13.1196L18.4019 14.1484C18.2223 14.2512 18.16 14.4801 18.2627 14.6596C18.3655 14.8392 18.5944 14.9015 18.7739 14.7988L20.5723 13.77C21.2822 13.3638 21.5302 12.4526 21.1241 11.7427C21.0185 11.5582 20.8786 11.4048 20.717 11.286L21.6038 7.97667C21.7467 7.44314 22.3003 7.12355 22.8338 7.26656C23.3674 7.40953 23.6869 7.96294 23.544 8.49642ZM9.21504 15.6531L9.10639 14.8336C9.04053 14.3369 8.80672 13.9329 8.40898 13.6282L5.04232 11.7021C4.51268 11.3991 3.82929 11.5852 3.52629 12.1148C3.32731 12.466 3.44871 12.9187 3.79976 13.1196L5.59817 14.1484C5.77775 14.2512 5.84004 14.4801 5.73734 14.6596C5.63459 14.8392 5.4057 14.9015 5.22612 14.7988L3.42776 13.77C2.71793 13.3638 2.46987 12.4526 2.87595 11.7427C2.98151 11.5582 3.12143 11.4048 3.28306 11.286L2.39623 7.97667C2.25326 7.44314 1.69971 7.12355 1.16618 7.26656C0.632605 7.40963 0.313059 7.96303 0.45598 8.49652L2.05817 14.4757C2.18782 14.9595 2.48164 15.3145 2.9059 15.5805L4.76923 16.7489C5.19218 17.0141 5.45468 17.3379 5.60932 17.7349L9.21504 15.6531ZM10.3052 6.92841C10.3052 7.86441 11.064 8.62322 12 8.62322C12.936 8.62322 13.6948 7.86441 13.6948 6.92841C13.6948 5.99241 12.936 5.23364 12 5.23364C11.064 5.23359 10.3052 5.99241 10.3052 6.92841ZM7.63521 7.46775C8.57121 7.46775 9.33003 6.70894 9.33003 5.77294C9.33003 4.83694 8.57121 4.07812 7.63521 4.07812C6.69921 4.07812 5.9404 4.83694 5.9404 5.77294C5.9404 6.70894 6.69921 7.46775 7.63521 7.46775ZM16.3647 4.07812C15.4287 4.07812 14.6699 4.83694 14.6699 5.77294C14.6699 6.70894 15.4287 7.46775 16.3647 7.46775C17.3007 7.46775 18.0596 6.70894 18.0596 5.77294C18.0596 4.83694 17.3007 4.07812 16.3647 4.07812ZM14.0688 8.9422C14.8393 9.42956 15.4307 10.1809 15.7095 11.0723H19.2567C19.3944 11.0723 19.5014 10.9562 19.4903 10.819C19.3603 9.21155 18.0042 7.93645 16.3647 7.93645C15.4604 7.9365 14.6425 8.32453 14.0688 8.9422ZM8.8744 11.9745C8.86329 12.1118 8.97036 12.2277 9.10807 12.2277H14.8919C15.0297 12.2277 15.1367 12.1117 15.1256 11.9745C14.9956 10.3671 13.6395 9.09192 12 9.09192C10.3605 9.09197 9.00443 10.3671 8.8744 11.9745ZM10.0913 16.2685C10.0305 16.1632 9.89454 16.1267 9.78917 16.1876L5.46931 18.6817C5.36393 18.7425 5.32756 18.8784 5.38836 18.9838L5.84932 19.7821C5.91017 19.8875 6.04611 19.9239 6.15143 19.8631L10.4713 17.3691C10.5767 17.3082 10.6131 17.1723 10.5523 17.0669L10.0913 16.2685ZM18.5307 18.6817L14.2108 16.1876C14.1054 16.1268 13.9695 16.1632 13.9087 16.2686L13.4477 17.067C13.3869 17.1723 13.4233 17.3083 13.5287 17.3691L17.8486 19.8632C17.9539 19.924 18.0898 19.8876 18.1507 19.7822L18.6117 18.9838C18.6724 18.8784 18.636 18.7425 18.5307 18.6817ZM4.74331 11.0723H8.29043C8.56929 10.1809 9.16062 9.42961 9.9312 8.94225C9.3575 8.32458 8.53957 7.93655 7.63526 7.93655C5.99581 7.93655 4.63971 9.21164 4.50968 10.8191C4.49853 10.9563 4.60559 11.0723 4.74331 11.0723Z" fill="url(#paint0_linear_973_39599)"/>
<defs>
<linearGradient id="paint0_linear_973_39599" x1="12" y1="4.07812" x2="12" y2="19.8926" gradientUnits="userSpaceOnUse">
<stop stop-color="#F7A2A8"/>
<stop offset="1" stop-color="#F9414E"/>
</linearGradient>
</defs>
</svg>
