<svg width="25" height="24" viewBox="0 0 25 24" fill="none" xmlns="http://www.w3.org/2000/svg">
<path d="M15.2687 9.7738C15.2152 8.01613 14.9482 6.39105 14.5034 5.14251C14.016 3.77456 13.4686 3.28918 13.1479 3.28918C12.8272 3.28918 12.2798 3.77452 11.7922 5.14242C11.3473 6.39088 11.0802 8.01595 11.0266 9.77363L15.2687 9.7738Z" fill="url(#paint0_linear_973_39623)"/>
<path d="M19.0487 18.2794L19.4473 19.7899H13.7921L13.7921 18.2794H12.5031L12.503 19.7899H6.8434L7.23351 18.2794H6.67122C6.49922 18.2794 6.33435 18.2107 6.21335 18.0885L6.00564 17.8788L5.01989 21.6955C4.93091 22.0402 5.1381 22.3918 5.48275 22.4807C5.53681 22.4947 5.59103 22.5014 5.6444 22.5014C5.93122 22.5014 6.19294 22.3084 6.268 22.0178L6.51052 21.0789H12.5031V21.7575C12.5031 22.1134 12.7916 22.402 13.1476 22.402C13.5035 22.402 13.7921 22.1134 13.7921 21.7575V21.0789H19.7875L20.01 21.9219C20.0863 22.211 20.3473 22.4022 20.6328 22.4022C20.6872 22.4022 20.7426 22.3952 20.7977 22.3807C21.1419 22.2898 21.3472 21.9372 21.2564 21.593L20.3819 18.2794H19.0487V18.2794Z" fill="url(#paint1_linear_973_39623)"/>
<path d="M15.7177 4.70979C16.2097 6.09028 16.503 7.8685 16.5582 9.77382L19.6322 9.77395H19.6323C19.8032 9.77395 19.9671 9.70606 20.088 9.58518C20.2089 9.46431 20.2768 9.30034 20.2768 9.12946C20.2769 5.2117 17.1004 2.02214 13.1876 2.00061C13.917 2.01754 14.9341 2.5103 15.7177 4.70979Z" fill="url(#paint2_linear_973_39623)"/>
<path d="M10.5778 4.7097C11.3621 2.5091 12.3799 2.01698 13.1094 2.00061C11.2195 2.01045 9.44415 2.75067 8.10667 4.08799C6.76012 5.43445 6.01852 7.22466 6.01843 9.12886C6.01843 9.48481 6.30697 9.77343 6.66292 9.77343L9.73694 9.77356C9.79229 7.86828 10.0858 6.09015 10.5778 4.7097Z" fill="url(#paint3_linear_973_39623)"/>
<path d="M6.94003 16.9904H23.228C23.3823 16.9904 23.5066 16.8619 23.4999 16.7076C23.4999 16.7072 23.4998 16.7067 23.4998 16.7063C23.4305 15.2594 22.2355 14.1077 20.7715 14.1077H13.7922L13.7922 11.0786L12.5032 11.0786L12.5031 14.1077H8.1166L5.35917 11.413C4.84415 10.8921 4.15704 10.604 3.42451 10.6019C3.4218 10.6019 3.41918 10.6019 3.41651 10.6019C2.73048 10.6019 2.08332 10.853 1.57943 11.3121C1.47721 11.4056 1.47326 11.5654 1.57075 11.6638L6.94003 16.9904Z" fill="url(#paint4_linear_973_39623)"/>
<defs>
<linearGradient id="paint0_linear_973_39623" x1="13.1476" y1="3.28918" x2="13.1476" y2="9.7738" gradientUnits="userSpaceOnUse">
<stop stop-color="#F7A2A8"/>
<stop offset="1" stop-color="#F9414E"/>
</linearGradient>
<linearGradient id="paint1_linear_973_39623" x1="13.1386" y1="17.8788" x2="13.1386" y2="22.5014" gradientUnits="userSpaceOnUse">
<stop stop-color="#F7A2A8"/>
<stop offset="1" stop-color="#F9414E"/>
</linearGradient>
<linearGradient id="paint2_linear_973_39623" x1="16.7322" y1="2.00061" x2="16.7322" y2="9.77395" gradientUnits="userSpaceOnUse">
<stop stop-color="#F7A2A8"/>
<stop offset="1" stop-color="#F9414E"/>
</linearGradient>
<linearGradient id="paint3_linear_973_39623" x1="9.56391" y1="2.00061" x2="9.56391" y2="9.77356" gradientUnits="userSpaceOnUse">
<stop stop-color="#F7A2A8"/>
<stop offset="1" stop-color="#F9414E"/>
</linearGradient>
<linearGradient id="paint4_linear_973_39623" x1="12.5001" y1="10.6019" x2="12.5001" y2="16.9904" gradientUnits="userSpaceOnUse">
<stop stop-color="#F7A2A8"/>
<stop offset="1" stop-color="#F9414E"/>
</linearGradient>
</defs>
</svg>
