<svg width="78" height="78" viewBox="0 0 78 78" fill="none" xmlns="http://www.w3.org/2000/svg">
<rect x="1" y="1" width="76" height="76" rx="8" fill="white"/>
<rect x="1" y="1" width="76" height="76" rx="8" stroke="#D4D4D4" stroke-linecap="round" stroke-dasharray="6 6"/>
<path d="M23 39C23 30.1634 30.1634 23 39 23C47.8366 23 55 30.1634 55 39C55 47.8366 47.8366 55 39 55C30.1634 55 23 47.8366 23 39Z" fill="#E9F2FF"/>
<path d="M32.4413 34.6993C32.4413 33.4521 33.4524 32.4411 34.6995 32.4411H40.4345C40.771 32.4411 41.0438 32.1683 41.0438 31.8318C41.0438 31.4952 40.771 31.2224 40.4345 31.2224H34.6995C32.7793 31.2224 31.2227 32.779 31.2227 34.6993V43.3017C31.2227 45.2219 32.7793 46.7786 34.6995 46.7786H43.302C45.2222 46.7786 46.7788 45.2219 46.7788 43.3017V37.5667C46.7788 37.2302 46.506 36.9574 46.1695 36.9574C45.8329 36.9574 45.5601 37.2302 45.5601 37.5667V40.0282C45.5506 40.0215 45.5409 40.0148 45.5311 40.0083L43.8243 38.8704C42.687 38.1122 41.1726 38.2622 40.206 39.2287L37.7956 41.6392C36.829 42.6057 35.3147 42.7557 34.1773 41.9975L32.4413 40.8401V34.6993Z" fill="#2D84FF"/>
<path d="M44.6282 36.1324C44.6282 36.469 44.3554 36.7418 44.0189 36.7418C43.6823 36.7418 43.4095 36.469 43.4095 36.1324V33.3023L43.016 33.6958C42.778 33.9338 42.3922 33.9338 42.1542 33.6958C41.9163 33.4579 41.9163 33.072 42.1542 32.8341L43.0811 31.9072C43.599 31.3893 44.4387 31.3893 44.9566 31.9072L45.8835 32.8341C46.1214 33.072 46.1214 33.4579 45.8835 33.6958C45.6455 33.9338 45.2597 33.9338 45.0217 33.6958L44.6282 33.3023V36.1324Z" fill="#2D84FF"/>
<path d="M36.4917 38.2833C37.4815 38.2833 38.2839 37.481 38.2839 36.4912C38.2839 35.5014 37.4815 34.699 36.4917 34.699C35.502 34.699 34.6996 35.5014 34.6996 36.4912C34.6996 37.481 35.502 38.2833 36.4917 38.2833Z" fill="#2D84FF"/>
</svg>
