<svg width="16" height="16" viewBox="0 0 16 16" fill="none" xmlns="http://www.w3.org/2000/svg">
<path d="M2.45365 9.23905C2.47277 9.45127 2.48256 9.67844 2.52241 9.89343L1.78847 10.2753C1.73029 10.3056 1.68559 10.3566 1.66319 10.4182C1.64079 10.4798 1.64232 10.5476 1.66749 10.6082L2.37367 12.3083C2.39881 12.3688 2.44575 12.4177 2.50521 12.4453C2.56466 12.4729 2.63231 12.4773 2.69479 12.4574L3.48051 12.2079C3.8362 12.7075 4.27314 13.1439 4.77318 13.4989L4.52367 14.2864C4.50384 14.3489 4.50816 14.4165 4.53577 14.4759C4.56338 14.5354 4.61227 14.5823 4.67279 14.6074L6.37289 15.3136C6.43342 15.339 6.50131 15.3407 6.56301 15.3182C6.62472 15.2958 6.6757 15.251 6.70578 15.1926L7.08777 14.4584C7.69225 14.5606 8.3096 14.5607 8.9141 14.4585L9.29596 15.1926C9.32629 15.2507 9.37729 15.2954 9.4389 15.3178C9.50051 15.3402 9.56828 15.3387 9.62885 15.3136L11.3289 14.6074C11.3895 14.5823 11.4384 14.5353 11.466 14.4759C11.4936 14.4164 11.4979 14.3488 11.4781 14.2863L11.2286 13.5007C11.7282 13.145 12.1646 12.708 12.5196 12.2079L13.3071 12.4574C13.3695 12.4773 13.4372 12.473 13.4966 12.4454C13.5561 12.4178 13.603 12.3689 13.6281 12.3083L14.3342 10.6082C14.3594 10.5476 14.3609 10.4798 14.3385 10.4182C14.3161 10.3566 14.2714 10.3056 14.2133 10.2753L13.4788 9.89318C13.5189 9.67558 13.5288 9.44872 13.5481 9.23904C13.7736 9.23046 13.9888 9.14206 14.1552 8.98961C14.3217 8.83716 14.4286 8.63056 14.4569 8.40663C14.4852 8.1827 14.4331 7.956 14.3098 7.76692C14.1865 7.57785 14.0001 7.43869 13.7838 7.37425C13.8301 6.08111 13.4433 4.80953 12.6845 3.76132C11.9258 2.71312 10.8388 1.94834 9.59586 1.58837C9.58877 1.3416 9.48579 1.10732 9.30877 0.935244C9.13175 0.763173 8.89464 0.666869 8.64777 0.666776H7.35396C7.10612 0.664861 6.86754 0.760798 6.69002 0.933751C6.51251 1.1067 6.41039 1.34271 6.40585 1.59051C5.19816 1.93304 4.13544 2.66076 3.37945 3.66291C2.62346 4.66507 2.21558 5.88678 2.21791 7.14211V7.37426C2.00155 7.43865 1.81509 7.5778 1.69178 7.76688C1.56847 7.95597 1.51632 8.18271 1.54463 8.40666C1.57294 8.63062 1.67988 8.83725 1.84636 8.9897C2.01285 9.14215 2.22807 9.23052 2.45365 9.23905ZM13.7584 10.6292L13.2365 11.8856L12.4923 11.6498C12.4379 11.6324 12.3793 11.6333 12.3255 11.6524C12.2716 11.6715 12.2256 11.7077 12.1944 11.7556C11.823 12.3208 11.3403 12.8043 10.7756 13.1764C10.7281 13.2078 10.6921 13.2539 10.6731 13.3076C10.6542 13.3613 10.6532 13.4198 10.6705 13.4741L10.906 14.2158L9.64982 14.7377L9.28917 14.0446C9.26275 13.9942 9.22067 13.9537 9.16927 13.9292C9.11787 13.9047 9.05992 13.8976 9.00412 13.9089C8.34214 14.0452 7.65932 14.0452 6.99734 13.9089C6.94158 13.8974 6.8836 13.9045 6.8322 13.929C6.7808 13.9535 6.73879 13.9941 6.71254 14.0446L6.3519 14.7377L5.09543 14.2158L5.33125 13.4717C5.34851 13.4172 5.34752 13.3587 5.32842 13.3049C5.30933 13.2511 5.27318 13.205 5.22548 13.1737C4.66033 12.8023 4.17687 12.3195 3.80468 11.7549C3.77331 11.7073 3.72724 11.6713 3.67349 11.6523C3.61974 11.6334 3.56126 11.6325 3.50697 11.6498L2.76524 11.8854L2.24336 10.6292L2.93649 10.2685C2.98708 10.2422 3.0277 10.2001 3.05219 10.1486C3.07668 10.0971 3.0837 10.039 3.07218 9.98319C3.02386 9.73861 2.99401 9.49073 2.98289 9.24166H4.06805C4.37896 13.3834 10.0175 14.314 11.6429 10.4884C11.8066 10.0914 11.9038 9.67023 11.9307 9.24166H13.0187C12.9332 10.3944 12.6956 10.0626 13.7584 10.6292ZM4.59208 9.24166H11.4068C10.9666 13.4362 5.03002 13.4238 4.59208 9.24166ZM7.03705 1.32941C7.07714 1.28529 7.12609 1.25012 7.1807 1.2262C7.23531 1.20228 7.29434 1.19015 7.35396 1.19059H8.64779C8.7074 1.19015 8.76644 1.20228 8.82104 1.2262C8.87565 1.25012 8.9246 1.28529 8.9647 1.32941C9.01529 1.39255 9.0506 1.46655 9.06786 1.5456C9.08513 1.62466 9.08388 1.70663 9.06422 1.78513L8.68183 5.95733H7.31991L6.93752 1.78513C6.9179 1.70663 6.91668 1.62466 6.93394 1.54562C6.95121 1.46657 6.98649 1.39258 7.03705 1.32941ZM2.74173 7.14211C2.73951 6.01958 3.09802 4.92603 3.7644 4.02269C4.43077 3.11935 5.36975 2.454 6.44291 2.12475L6.81966 6.24281C6.82561 6.30809 6.8558 6.36878 6.90428 6.4129C6.95277 6.45701 7.01602 6.48137 7.08157 6.48115H8.92017C8.98572 6.48137 9.04898 6.45701 9.09746 6.4129C9.14594 6.36878 9.17613 6.30809 9.18208 6.24281L9.5591 2.12179C10.6635 2.46355 11.6245 3.15967 12.2935 4.10249C12.9625 5.04532 13.3022 6.1823 13.26 7.33759H2.74175L2.74173 7.14211ZM2.47835 7.86154C2.47694 7.86083 13.5197 7.8614 13.5197 7.8614C13.5759 7.86125 13.6316 7.87219 13.6837 7.89357C13.7357 7.91496 13.783 7.94638 13.8228 7.98604C13.8627 8.0257 13.8944 8.07283 13.916 8.12473C13.9377 8.17663 13.9489 8.23228 13.949 8.28852C13.9492 8.34475 13.9382 8.40047 13.9169 8.45248C13.8955 8.50449 13.864 8.55177 13.8244 8.59164C13.7847 8.63151 13.7376 8.66317 13.6857 8.68483C13.6338 8.70648 13.5781 8.7177 13.5219 8.71785C12.3511 8.71764 2.47984 8.71785 2.47984 8.71785C2.36774 8.71583 2.26091 8.66994 2.18228 8.59002C2.10365 8.5101 2.05949 8.40254 2.0593 8.29043C2.0591 8.17831 2.10288 8.07059 2.18123 7.9904C2.25958 7.91021 2.36626 7.86395 2.47835 7.86154Z" fill="#7F7F7F" stroke="#7F7F7F" stroke-width="0.3"/>
</svg>
